<svg width="28" height="28" viewBox="0 0 28 28" fill="none" xmlns="http://www.w3.org/2000/svg">
<path d="M7.00033 23.3332C6.0281 23.3332 5.20171 22.9929 4.52116 22.3123C3.8406 21.6318 3.50033 20.8054 3.50033 19.8332H1.16699V6.99984C1.16699 6.35817 1.39566 5.80906 1.85299 5.3525C2.30955 4.89517 2.85866 4.6665 3.50033 4.6665H19.8337V9.33317H23.3337L26.8337 13.9998V19.8332H24.5003C24.5003 20.8054 24.1601 21.6318 23.4795 22.3123C22.7989 22.9929 21.9726 23.3332 21.0003 23.3332C20.0281 23.3332 19.2017 22.9929 18.5212 22.3123C17.8406 21.6318 17.5003 20.8054 17.5003 19.8332H10.5003C10.5003 20.8054 10.16 21.6318 9.47949 22.3123C8.79894 22.9929 7.97255 23.3332 7.00033 23.3332ZM7.00033 20.9998C7.33088 20.9998 7.60816 20.8878 7.83216 20.6638C8.05538 20.4406 8.16699 20.1637 8.16699 19.8332C8.16699 19.5026 8.05538 19.2257 7.83216 19.0025C7.60816 18.7785 7.33088 18.6665 7.00033 18.6665C6.66977 18.6665 6.39249 18.7785 6.16849 19.0025C5.94527 19.2257 5.83366 19.5026 5.83366 19.8332C5.83366 20.1637 5.94527 20.4406 6.16849 20.6638C6.39249 20.8878 6.66977 20.9998 7.00033 20.9998ZM21.0003 20.9998C21.3309 20.9998 21.6078 20.8878 21.831 20.6638C22.055 20.4406 22.167 20.1637 22.167 19.8332C22.167 19.5026 22.055 19.2257 21.831 19.0025C21.6078 18.7785 21.3309 18.6665 21.0003 18.6665C20.6698 18.6665 20.3929 18.7785 20.1697 19.0025C19.9457 19.2257 19.8337 19.5026 19.8337 19.8332C19.8337 20.1637 19.9457 20.4406 20.1697 20.6638C20.3929 20.8878 20.6698 20.9998 21.0003 20.9998ZM19.8337 15.1665H24.792L22.167 11.6665H19.8337V15.1665Z" fill="#ADA985"/>
</svg>
