<svg width="29" height="28" viewBox="0 0 29 28" fill="none" xmlns="http://www.w3.org/2000/svg">
<g clip-path="url(#clip0_1546_3058)">
<path d="M14.5004 6.25572L17.3879 2.72539C21.0058 2.92255 24.3751 3.78472 27.4434 5.19289L27.2719 5.12172C26.3112 6.37888 25.0297 7.35414 23.5619 7.94505L23.5024 7.96605C23.3321 6.28722 22.1561 5.87772 18.4228 5.87772L14.5016 28.0001L10.5571 5.87305C6.84709 5.87305 5.67109 6.28605 5.49959 7.96372C4.01756 7.38383 2.72076 6.41245 1.74759 5.15322L1.73243 5.13339C4.62693 3.79405 7.99626 2.92955 11.5429 2.73355L11.6141 2.73005L14.5016 6.25572H14.5004ZM14.5004 1.70572C14.6253 1.70339 14.7723 1.70339 14.9193 1.70339C19.5474 1.70339 23.9469 2.68339 27.9206 4.44739L27.7164 4.36689C28.0117 3.87112 28.2653 3.35173 28.4748 2.81405L28.5004 2.74055C24.3576 1.03372 19.5509 0.0303874 14.5121 0.0012207H14.5004C9.61115 0.0211587 4.7715 0.982909 0.246094 2.83389L0.500427 2.74172C0.76176 3.38922 1.02426 3.92589 1.32059 4.44272L1.28443 4.37505C5.06209 2.68572 9.47093 1.70222 14.1108 1.70222L14.5214 1.70455H14.5004V1.70572Z" fill="#212121"/>
</g>
<defs>
<clipPath id="clip0_1546_3058">
<rect width="28" height="28" fill="white" transform="translate(0.5)"/>
</clipPath>
</defs>
</svg>
