<svg width="29" height="28" viewBox="0 0 29 28" fill="none" xmlns="http://www.w3.org/2000/svg">
<g clip-path="url(#clip0_1546_10938)">
<path d="M14.5 4.48926C6.5935 4.48926 0.5 8.51426 0.5 13.9999C0.5 19.4856 6.59467 23.5106 14.5 23.5106C22.4053 23.5106 28.5 19.4856 28.5 13.9999C28.5 8.51426 22.4065 4.48926 14.5 4.48926V4.48926ZM23.0563 8.96809C23.0563 10.2281 21.0438 11.1999 17.8203 11.5884C17.517 8.57842 16.6478 6.59626 15.5302 5.85659C18.9695 6.07126 23.0552 7.28809 23.0552 8.96809H23.0563ZM14.5 19.1344C13.38 19.1344 12.463 17.3844 12.3907 14.0139C13.0638 14.0688 13.7673 14.0979 14.5 14.0979C15.2327 14.0979 15.935 14.0688 16.6082 14.0139C16.537 17.3856 15.62 19.1344 14.5 19.1344ZM14.5 11.7751C13.8117 11.7751 13.1525 11.7529 12.5283 11.7121C12.8328 9.69609 13.6017 8.03709 14.5 8.03709C15.3983 8.03709 16.166 9.69609 16.4705 11.7121C15.8463 11.7518 15.1883 11.7751 14.5 11.7751ZM13.471 5.85426C12.3557 6.59276 11.4807 8.57609 11.1797 11.5884C7.95617 11.1999 5.9425 10.2281 5.9425 8.96809C5.9425 7.28809 10.0305 6.06309 13.471 5.85426V5.85426ZM2.8765 13.6266C2.87355 12.2962 3.30262 11.0008 4.09917 9.93526C4.41417 11.7401 7.0415 13.2964 11.0665 13.8669V13.9999C11.0665 18.4006 12.092 21.2368 13.5013 22.1316C7.54317 21.7571 2.8765 18.0716 2.8765 13.6266V13.6266ZM15.5033 22.1316C16.9115 21.2368 17.9382 18.4006 17.9382 13.9999V13.8658C21.9597 13.2964 24.5928 11.7354 24.9055 9.93409C25.7031 10.9996 26.1326 12.2956 26.1293 13.6266C26.1247 18.0716 21.4533 21.7571 15.5022 22.1316H15.5033Z" fill="#212121"/>
</g>
<defs>
<clipPath id="clip0_1546_10938">
<rect width="28" height="28" fill="white" transform="translate(0.5)"/>
</clipPath>
</defs>
</svg>
