<svg width="29" height="28" viewBox="0 0 29 28" fill="none" xmlns="http://www.w3.org/2000/svg">
<g clip-path="url(#clip0_1546_3369)">
<path d="M14.5 0C22.2268 0 28.5 6.27317 28.5 14C28.5 21.7268 22.2268 28 14.5 28C6.77317 28 0.5 21.7268 0.5 14C0.5 6.27317 6.77317 0 14.5 0ZM4.28583 20.4622C5.3756 22.1853 6.88365 23.6046 8.66957 24.588C10.4555 25.5715 12.4612 26.087 14.5 26.0867C18.7945 26.0867 22.5698 23.842 24.7142 20.4622L14.5 16.5702L4.28583 20.4622ZM16.726 12.7143L25.2042 19.6152C26.1149 17.8838 26.5895 15.9563 26.5867 14C26.5867 7.4935 21.4335 2.1805 14.99 1.92267L16.726 12.7143ZM14.01 1.92267C7.5665 2.1805 2.41333 7.4935 2.41333 14C2.41333 16.0265 2.91267 17.9363 3.79583 19.6152L12.274 12.7143L14.01 1.92267Z" fill="#212121"/>
</g>
<defs>
<clipPath id="clip0_1546_3369">
<rect width="28" height="28" fill="white" transform="translate(0.5)"/>
</clipPath>
</defs>
</svg>
