<svg width="29" height="28" viewBox="0 0 29 28" fill="none" xmlns="http://www.w3.org/2000/svg">
<g clip-path="url(#clip0_1546_3066)">
<path d="M14.5 0C6.7685 0 0.5 6.2685 0.5 14C0.5 21.7315 6.7685 28 14.5 28C22.2315 28 28.5 21.7315 28.5 14C28.5 6.2685 22.2315 0 14.5 0ZM14.5 0.91C21.7287 0.91 27.5888 6.77017 27.5888 14C27.5888 21.2287 21.7298 27.0888 14.5 27.0888C7.27017 27.0888 1.41117 21.2287 1.41117 14C1.41117 6.77133 7.27133 0.91 14.5 0.91ZM13.709 1.645C13.324 1.66133 12.939 1.694 12.5517 1.736L12.4268 5.17067C12.7015 5.12418 12.9778 5.0876 13.2552 5.061L13.3368 2.74167L13.3217 2.58183L13.3718 2.7335L14.1465 4.47067H14.8535L15.6282 2.73467L15.6748 2.58183L15.6632 2.74167L15.7448 5.061C16.0155 5.08667 16.2967 5.124 16.5732 5.17067L16.446 1.736C16.0614 1.69266 15.6754 1.6623 15.2887 1.645L14.5268 3.54083L14.5 3.68083L14.4732 3.54083L13.709 1.645ZM21.521 3.773L19.7208 6.60567C19.9483 6.78067 20.2482 7.0385 20.4407 7.21467L22.1358 6.335L22.2432 6.2545L22.1627 6.36417L21.2853 8.05933C21.4755 8.2635 21.7497 8.59367 21.9037 8.79433L24.7387 6.993C24.5648 6.76809 24.3859 6.54714 24.202 6.33033L22.4065 7.51333L22.284 7.62067L22.375 7.4865L23.1683 5.9045L22.6083 5.3445L21.0263 6.13783L20.8922 6.22883L20.9983 6.10517L22.186 4.30967C21.976 4.13233 21.7765 3.97017 21.521 3.773ZM6.91667 4.41583C6.49667 4.459 6.17233 4.746 5.2915 5.72833C4.98606 6.07448 4.69153 6.4301 4.40833 6.79467L6.828 9.0895C7.6295 8.20283 7.955 7.87383 8.58733 7.20767C9.03417 6.73517 9.28733 6.19267 8.83933 5.67117C8.59667 5.38883 8.18833 5.327 7.84767 5.467L7.815 5.47867L7.82667 5.44833C7.86874 5.29353 7.86429 5.12976 7.81387 4.97747C7.76346 4.82518 7.6693 4.69111 7.54317 4.592C7.45549 4.52287 7.35497 4.47181 7.24744 4.44177C7.1399 4.41173 7.02748 4.40331 6.91667 4.417V4.41583ZM6.92367 5.13333C7.08233 5.09017 7.24683 5.20333 7.283 5.36667C7.32033 5.53 7.21767 5.684 7.10333 5.81233C6.84667 6.104 5.9005 7.09333 5.9005 7.09333L5.4315 6.6465C5.918 6.0515 6.436 5.51017 6.6705 5.2955C6.74086 5.22216 6.82763 5.16658 6.92367 5.13333V5.13333ZM14.5 5.69683C12.4448 5.69593 10.4624 6.45758 8.93646 7.83433C7.41056 9.21109 6.44974 11.105 6.24 13.1495V13.1518C6.10817 14.4489 6.28342 15.7588 6.75159 16.9757C7.21977 18.1925 7.96771 19.2821 8.93496 20.1563C9.90221 21.0305 11.0616 21.6648 12.3194 22.008C13.5772 22.3512 14.8981 22.3935 16.1753 22.1317C18.0475 21.7468 19.7293 20.7275 20.9367 19.2459C22.1441 17.7643 22.803 15.9113 22.802 14C22.7998 11.7989 21.9244 9.68867 20.3679 8.1324C18.8114 6.57613 16.7011 5.70102 14.5 5.69917V5.69683ZM8.04017 5.97917C8.095 5.97917 8.15217 5.99433 8.2035 6.02933C8.30617 6.09817 8.35283 6.216 8.32717 6.33267C8.29683 6.4715 8.18133 6.60217 8.088 6.70367L6.86883 8.01033L6.37883 7.54367C6.37883 7.54367 7.297 6.573 7.598 6.2615C7.717 6.13783 7.794 6.06317 7.87567 6.02233C7.92626 5.99607 7.98204 5.98132 8.039 5.97917H8.04017ZM14.5 6.78767C15.4474 6.78659 16.3858 6.97241 17.2613 7.33448C18.1368 7.69656 18.9323 8.22777 19.6023 8.89771C20.2722 9.56765 20.8034 10.3632 21.1655 11.2387C21.5276 12.1142 21.7134 13.0526 21.7123 14H14.5V21.2123C13.5526 21.2134 12.6142 21.0276 11.7387 20.6655C10.8632 20.3034 10.0677 19.7722 9.39771 19.1023C8.72777 18.4323 8.19656 17.6368 7.83448 16.7613C7.47241 15.8858 7.28659 14.9474 7.28767 14H14.5V6.78767Z" fill="#212121"/>
</g>
<defs>
<clipPath id="clip0_1546_3066">
<rect width="28" height="28" fill="white" transform="translate(0.5)"/>
</clipPath>
</defs>
</svg>
