<svg width="29" height="28" viewBox="0 0 29 28" fill="none" xmlns="http://www.w3.org/2000/svg">
<g clip-path="url(#clip0_1546_8660)">
<path d="M13.6472 13.0958H13.0382V12.6957H15.4555V13.0958H14.8535V14.9042H15.4123C15.9292 14.9042 16.2687 14.5635 16.2687 14.0992H16.6677V15.3102H13.0393V14.9053H13.6483L13.6472 13.0958ZM16.6023 13.097H16.0015V12.6957H18.6242V13.097H17.9895L18.8738 14.7105L19.7477 13.097H19.225V12.6957H21.0333V13.097H20.4313L19.2332 15.3137L17.8215 15.3125L16.6023 13.097ZM22.6468 12.6397C23.8613 12.6397 24.5135 13.2463 24.5135 14.0058C24.5135 14.7758 23.8987 15.3907 22.6538 15.3907C21.409 15.3907 20.7883 14.777 20.7883 14.0058C20.7883 13.2463 21.4335 12.6408 22.6468 12.6408V12.6397ZM7.2445 14.7117L8.11717 13.0982H7.59567V12.6968H9.40167V13.0982H8.80083L7.6015 15.3148L6.18983 15.3137L4.97067 13.0982H4.371V12.6968H6.9925V13.0982H6.359L7.2445 14.7117ZM11.021 12.6408C12.2355 12.6408 12.8877 13.2475 12.8877 14.007C12.8877 14.777 12.2728 15.3918 11.028 15.3918C9.78317 15.3918 9.1625 14.7782 9.1625 14.007C9.1625 13.2475 9.8065 12.642 11.021 12.642V12.6408ZM10.3782 13.9907C10.3863 13.4867 10.6278 13.0468 11.0432 13.0538C11.4585 13.062 11.6778 13.5088 11.6697 14.014C11.6603 14.4888 11.4643 14.9835 11.0082 14.9753C10.5648 14.9672 10.37 14.4772 10.3782 13.9907V13.9907ZM22.004 13.9907C22.0122 13.4867 22.2537 13.0468 22.669 13.0538C23.0843 13.062 23.3037 13.5088 23.2955 14.014C23.2862 14.4888 23.0902 14.9835 22.634 14.9753C22.1907 14.9672 21.9958 14.4772 22.004 13.9907ZM4.26367 11.4683C5.39767 6.86818 9.54983 3.45685 14.5 3.45685C19.4502 3.45685 23.6023 6.86818 24.7363 11.4672L4.26367 11.4683ZM24.7363 16.534C23.6023 21.133 19.4502 24.5443 14.5 24.5443C9.54983 24.5443 5.39767 21.133 4.26367 16.534H24.7363ZM25.7268 5.63618L26.3895 4.97235C26.8608 5.59301 27.2867 6.25101 27.6577 6.94168H28.1815V0.330181H21.57V0.848181C22.2572 1.21801 22.9117 1.64151 23.5277 2.11051L22.8638 2.77318C20.4491 0.96867 17.5145 -0.00436214 14.5 1.47013e-05C6.7685 1.47013e-05 0.5 6.26851 0.5 14C0.5 21.7315 6.7685 28 14.5 28C22.2315 28 28.5 21.7315 28.5 14C28.5 10.864 27.4687 7.96835 25.7268 5.63501V5.63618Z" fill="#212121"/>
</g>
<defs>
<clipPath id="clip0_1546_8660">
<rect width="28" height="28" fill="white" transform="translate(0.5)"/>
</clipPath>
</defs>
</svg>
