<svg width="29" height="28" viewBox="0 0 29 28" fill="none" xmlns="http://www.w3.org/2000/svg">
<g clip-path="url(#clip0_1546_3074)">
<path d="M0.5 6.0294V8.58906H3.90667L3.91133 7.7374L3.91833 6.88573L7.99933 6.8799L12.078 6.87523V11.6621H8.84983V10.3262L7.14183 10.3309L5.4315 10.3379V17.0392L7.14183 17.0462L8.84983 17.0509V15.7151H12.078V21.1027H3.90667V19.4111H0.5V24.5327H11.3617C18.4317 24.5327 22.3342 24.5234 22.543 24.5094C24.2196 24.3926 25.7828 23.6207 26.8947 22.3604C27.7364 21.4084 28.2803 20.2305 28.4592 18.9724C28.5152 18.5932 28.5128 17.5911 28.4568 17.2177C28.2777 15.9492 27.7254 14.7626 26.8702 13.8087C26.8109 13.7468 26.7563 13.6805 26.7068 13.6104C26.7068 13.6011 26.7698 13.5171 26.8468 13.4237C27.5743 12.5221 28.0314 11.4327 28.1652 10.2819C28.2046 9.8466 28.2085 9.40882 28.1768 8.9729C28.0517 7.76986 27.5763 6.62999 26.8095 5.69456C26.2127 4.97529 25.4614 4.39985 24.6115 4.01106C24.1641 3.80817 23.6941 3.65934 23.2115 3.56773C22.6107 3.46273 23.1672 3.46856 11.4842 3.46856H0.5V6.0294ZM22.2653 6.8974C22.9152 6.94873 23.383 7.14706 23.7878 7.5449C24.4132 8.16206 24.6395 9.19456 24.342 10.1034C24.2286 10.4547 24.0307 10.7728 23.7657 11.0297C23.4295 11.3551 22.9983 11.5648 22.5348 11.6282C22.3633 11.6574 21.8803 11.6632 19.4665 11.6632H16.5988V9.28323C16.5988 7.9754 16.6047 6.8974 16.614 6.89156C16.6373 6.8659 21.9445 6.8729 22.2653 6.8974V6.8974ZM22.5768 15.7477C23.8345 15.9507 24.685 16.8876 24.7655 18.1569C24.832 19.1929 24.4785 20.0387 23.7505 20.5929C23.565 20.7329 23.1672 20.9289 22.9443 20.9919C22.536 21.1027 22.5453 21.1027 19.4712 21.1027H16.5988V15.7151H19.4887C21.9177 15.7151 22.4077 15.7186 22.5768 15.7477Z" fill="#212121"/>
</g>
<defs>
<clipPath id="clip0_1546_3074">
<rect width="28" height="28" fill="white" transform="translate(0.5)"/>
</clipPath>
</defs>
</svg>
