<svg width="29" height="28" viewBox="0 0 29 28" fill="none" xmlns="http://www.w3.org/2000/svg">
<g clip-path="url(#clip0_1546_10949)">
<path d="M28.3861 8.01498C28.0011 4.26064 25.5044 3.47081 23.3064 3.11031C22.2028 2.92364 20.2381 2.76031 18.9711 2.71364C17.8674 2.64364 15.2751 2.60864 14.4969 2.60864C13.7304 2.60864 11.1253 2.64364 10.0228 2.71364C8.76744 2.76031 6.79111 2.92364 5.68744 3.11031C3.49061 3.48248 0.990439 4.26998 0.607772 8.01498C0.514439 9.03814 0.491105 10.3751 0.502772 11.8043C0.537772 14.1738 0.736105 15.778 0.852772 16.8945C0.934439 17.661 1.24711 19.9511 1.65427 21.1365C2.21194 22.764 2.72294 23.24 3.31561 23.7288C4.40877 24.612 6.19844 24.8908 6.57061 24.9608C8.59244 25.3225 12.6839 25.3901 14.4853 25.3901C16.2866 25.3901 20.3769 25.3318 22.3999 24.9608C22.7838 24.8908 24.5734 24.6225 25.6549 23.7288C26.2476 23.24 26.7586 22.764 27.3163 21.1365C27.7246 19.9511 28.0489 17.661 28.1306 16.8945C28.2473 15.778 28.4561 14.1738 28.4794 11.8043C28.5261 10.3751 28.4911 9.03814 28.3861 8.01498V8.01498ZM27.0141 14.315C26.7924 17.3133 26.5264 19.103 26.1426 20.405C25.8043 21.5436 25.3994 22.2985 24.7834 22.8456C23.7719 23.7638 22.3766 23.961 21.5634 24.0776C19.7971 24.346 16.8326 24.4276 14.4969 24.4276C12.1613 24.4276 9.19677 24.3343 7.43044 24.0776C6.61727 23.961 5.22194 23.7638 4.21044 22.8456C3.60611 22.2985 3.18844 21.532 2.86294 20.4038C2.47911 19.1146 2.21194 17.3121 1.99144 14.3138C1.86311 12.5136 1.88644 9.58414 2.08477 8.01381C2.38577 5.66764 3.54894 4.49281 6.03627 4.05181C7.19827 3.84181 8.76627 3.69014 10.2433 3.62014C11.4286 3.53848 13.3933 3.50348 14.4853 3.51514C15.5773 3.50348 17.5419 3.55014 18.7273 3.62014C20.2148 3.69014 21.7723 3.84181 22.9343 4.05181C25.4333 4.49281 26.5964 5.67931 26.8869 8.01498C27.1191 9.58414 27.1541 12.5136 27.0153 14.315H27.0141ZM20.9463 4.52664C20.3069 7.39898 20.0514 8.71264 19.5276 10.7916C19.0283 12.7925 18.6328 14.6393 17.9701 15.5341C17.2853 16.4406 16.3776 16.639 15.7616 16.7078C15.4361 16.7428 15.2039 16.7545 14.5179 16.7661C14.0991 16.7741 13.6801 16.7546 13.2638 16.7078C12.6478 16.6378 11.7296 16.4406 11.0564 15.5341C10.3821 14.6393 9.99827 12.7925 9.49894 10.7928C8.95061 8.72431 8.70794 7.39781 8.05694 4.52781C8.05694 4.52781 7.41761 4.55114 7.12711 4.57448C6.74327 4.59781 6.44111 4.63281 6.11561 4.67948C6.51577 10.9468 6.92294 17.605 7.42927 23.4978C8.35444 23.6142 9.28527 23.68 10.2176 23.695C10.6026 22.218 11.0903 20.1716 11.6258 19.3001C12.0668 18.5908 12.7528 18.5103 13.1366 18.4636C13.7409 18.382 14.2519 18.3703 14.4958 18.3703C14.7291 18.3586 15.2389 18.3703 15.8549 18.4636C16.2399 18.522 16.9248 18.592 17.3658 19.3001C17.9141 20.1716 18.3889 22.2168 18.7728 23.6938C18.7728 23.6938 19.1904 23.6821 20.1319 23.6355C20.6103 23.6145 21.0886 23.5678 21.5623 23.4955C22.0966 17.2071 22.4781 10.9795 22.8759 4.67948C22.5493 4.63281 22.2483 4.59781 21.8644 4.57448C21.5961 4.55114 20.9463 4.52781 20.9463 4.52781V4.52664Z" fill="#212121"/>
</g>
<defs>
<clipPath id="clip0_1546_10949">
<rect width="28" height="28" fill="white" transform="translate(0.5)"/>
</clipPath>
</defs>
</svg>
