<svg width="26" height="25" viewBox="0 0 26 25" fill="none" xmlns="http://www.w3.org/2000/svg">
<path fill-rule="evenodd" clip-rule="evenodd" d="M14.501 1.68482L16.9849 6.64717C17.2284 7.13433 17.6983 7.47214 18.2432 7.55031L23.7998 8.35015C25.1727 8.54836 25.7191 10.2122 24.7255 11.1656L20.7073 15.0266C20.3124 15.4063 20.1327 15.9521 20.2261 16.4881L21.1744 21.939C21.4079 23.2874 19.9727 24.3162 18.7456 23.6783L13.7792 21.1029C13.2923 20.8502 12.7091 20.8502 12.2208 21.1029L7.25438 23.6783C6.02727 24.3162 4.5921 23.2874 4.82705 21.939L5.77392 16.4881C5.86733 15.9521 5.68758 15.4063 5.2927 15.0266L1.27451 11.1656C0.280934 10.2122 0.82726 8.54836 2.20015 8.35015L7.75683 7.55031C8.30174 7.47214 8.77305 7.13433 9.01649 6.64717L11.499 1.68482C12.1133 0.457844 13.8867 0.457844 14.501 1.68482Z" stroke="#212121" stroke-width="1.5" stroke-linecap="round" stroke-linejoin="round"/>
</svg>
