<svg width="184" height="80" viewBox="0 0 184 80" fill="none" xmlns="http://www.w3.org/2000/svg">
<g opacity="0.2">
<path d="M172 41.5C172 40.6716 171.328 40 170.5 40C169.672 40 169 40.6716 169 41.5V66H172V41.5Z" fill="#707070"/>
<path d="M94 41.5C94 40.6716 93.3284 40 92.5 40C91.6716 40 91 40.6716 91 41.5V66H94V41.5Z" fill="#707070"/>
<path d="M151 41.5C151 40.6716 150.328 40 149.5 40C148.672 40 148 40.6716 148 41.5V66H151V41.5Z" fill="#707070"/>
<path d="M73 41.5C73 40.6716 72.3284 40 71.5 40C70.6716 40 70 40.6716 70 41.5V66H73V41.5Z" fill="#707070"/>
<path d="M146 41.5C146 40.6716 145.328 40 144.5 40C143.672 40 143 40.6716 143 41.5V66H146V41.5Z" fill="#707070"/>
<path d="M68 41.5C68 40.6716 67.3284 40 66.5 40C65.6716 40 65 40.6716 65 41.5V66H68V41.5Z" fill="#707070"/>
<path d="M99 41.5C99 40.6716 98.3284 40 97.5 40C96.6716 40 96 40.6716 96 41.5V66H99V41.5Z" fill="#707070"/>
<path d="M21 41.5C21 40.6716 20.3284 40 19.5 40C18.6716 40 18 40.6716 18 41.5V66H21V41.5Z" fill="#707070"/>
<path d="M167 32.5C167 31.6716 166.328 31 165.5 31C164.672 31 164 31.6716 164 32.5V66H167V32.5Z" fill="#707070"/>
<path d="M89 32.5C89 31.6716 88.3284 31 87.5 31C86.6716 31 86 31.6716 86 32.5V66H89V32.5Z" fill="#707070"/>
<path d="M104 32.5C104 31.6716 103.328 31 102.5 31C101.672 31 101 31.6716 101 32.5V66H104V32.5Z" fill="#707070"/>
<path d="M26 32.5C26 31.6716 25.3284 31 24.5 31C23.6716 31 23 31.6716 23 32.5V66H26V32.5Z" fill="#707070"/>
<path d="M162 23.5C162 22.6716 161.328 22 160.5 22C159.672 22 159 22.6716 159 23.5V67H162V23.5Z" fill="#707070"/>
<path d="M83 23.5C83 22.6716 82.3284 22 81.5 22C80.6716 22 80 22.6716 80 23.5V67H83V23.5Z" fill="#707070"/>
<path d="M141 23.5C141 22.6716 140.328 22 139.5 22C138.672 22 138 22.6716 138 23.5V67H141V23.5Z" fill="#707070"/>
<path d="M62 23.5C62 22.6716 61.3284 22 60.5 22C59.6716 22 59 22.6716 59 23.5V67H62V23.5Z" fill="#707070"/>
<path d="M109 23.5C109 22.6716 108.328 22 107.5 22C106.672 22 106 22.6716 106 23.5V67H109V23.5Z" fill="#707070"/>
<path d="M31 23.5C31 22.6716 30.3284 22 29.5 22C28.6716 22 28 22.6716 28 23.5V67H31V23.5Z" fill="#707070"/>
<path d="M15 23.5C15 22.6716 14.3284 22 13.5 22C12.6716 22 12 22.6716 12 23.5V67H15V23.5Z" fill="#707070"/>
<path d="M156 13.5C156 12.6716 155.328 12 154.5 12C153.672 12 153 12.6716 153 13.5V66H156V13.5Z" fill="#707070"/>
<path d="M78 13.5C78 12.6716 77.3284 12 76.5 12C75.6716 12 75 12.6716 75 13.5V66H78V13.5Z" fill="#707070"/>
<path d="M135 13.5C135 12.6716 134.328 12 133.5 12C132.672 12 132 12.6716 132 13.5V66H135V13.5Z" fill="#707070"/>
<path d="M57 13.5C57 12.6716 56.3284 12 55.5 12C54.6716 12 54 12.6716 54 13.5V66H57V13.5Z" fill="#707070"/>
<path d="M115 13.5C115 12.6716 114.328 12 113.5 12C112.672 12 112 12.6716 112 13.5V66H115V13.5Z" fill="#707070"/>
<path d="M36 13.5C36 12.6716 35.3284 12 34.5 12C33.6716 12 33 12.6716 33 13.5V66H36V13.5Z" fill="#707070"/>
<path d="M130 13.5C130 12.6716 129.328 12 128.5 12C127.672 12 127 12.6716 127 13.5V66H130V13.5Z" fill="#707070"/>
<path d="M52 13.5C52 12.6716 51.3284 12 50.5 12C49.6716 12 49 12.6716 49 13.5V66H52V13.5Z" fill="#707070"/>
<path d="M125 1.5C125 0.671571 124.328 0 123.5 0C122.672 0 122 0.671573 122 1.5V66H125V1.5Z" fill="#707070"/>
<path d="M47 1.5C47 0.671571 46.3284 0 45.5 0C44.6716 0 44 0.671573 44 1.5V66H47V1.5Z" fill="#707070"/>
<path d="M120 1.5C120 0.671571 119.328 0 118.5 0C117.672 0 117 0.671573 117 1.5V66H120V1.5Z" fill="#707070"/>
<path d="M42 1.5C42 0.671571 41.3284 0 40.5 0C39.6716 0 39 0.671573 39 1.5V66H42V1.5Z" fill="#707070"/>
</g>
<path d="M11 68H171" stroke="#ADA985" stroke-width="4" stroke-linecap="round"/>
<circle cx="12" cy="68" r="11.5" fill="#ADA985" stroke="#ADA985"/>
<circle cx="12" cy="68" r="6.5" fill="white" stroke="#ADA985"/>
<circle cx="172" cy="68" r="11.5" fill="#ADA985" stroke="#ADA985"/>
<circle cx="172" cy="68" r="6.5" fill="white" stroke="#ADA985"/>
</svg>
