<svg width="24" height="24" viewBox="0 0 24 24" fill="none" xmlns="http://www.w3.org/2000/svg">
<path fill-rule="evenodd" clip-rule="evenodd" d="M22.0793 8.57457L22.9437 9.43859C23.6279 10.1106 24.0001 11.0226 24.0001 11.9826C24.0121 12.9426 23.6399 13.8558 22.9677 14.5387C22.9597 14.5475 22.9517 14.5552 22.9437 14.5629C22.9397 14.5668 22.9357 14.5707 22.9316 14.5747L22.0793 15.4267C21.7432 15.7627 21.5511 16.2187 21.5511 16.6999V17.9347C21.5511 19.9267 19.9305 21.548 17.9378 21.548H16.7013C16.2211 21.548 15.765 21.7388 15.4288 22.0748L14.5645 22.9388C13.8562 23.648 12.9319 23.9948 12.0075 23.9948C11.0832 23.9948 10.1588 23.648 9.45058 22.952L8.57425 22.0748C8.23812 21.7388 7.78195 21.548 7.30177 21.548H6.0653C4.07255 21.548 2.45194 19.9267 2.45194 17.9347V16.6999C2.45194 16.2187 2.25987 15.7627 1.92374 15.4147L1.05942 14.5627C-0.345111 13.1598 -0.357115 10.8666 1.04741 9.45179L1.92374 8.57457C2.25987 8.23857 2.45194 7.78256 2.45194 7.29056V6.06654C2.45194 4.07451 4.07255 2.45569 6.0653 2.45569H7.30177C7.78195 2.45569 8.23812 2.26249 8.57425 1.92648L9.43857 1.06247C10.8431 -0.352351 13.136 -0.352351 14.5525 1.05167L15.4288 1.92648C15.765 2.26249 16.2211 2.45569 16.7013 2.45569H17.9378C19.9305 2.45569 21.5511 4.07451 21.5511 6.06654V7.30376C21.5511 7.78256 21.7432 8.23857 22.0793 8.57457ZM8.91037 16.1347C9.19848 16.1347 9.46258 16.0267 9.65465 15.8227L15.825 9.65579C16.2331 9.24778 16.2331 8.57457 15.825 8.16657C15.4168 7.75976 14.7566 7.75976 14.3484 8.16657L8.1781 14.3347C7.76994 14.7427 7.76994 15.4147 8.1781 15.8227C8.37017 16.0267 8.63427 16.1347 8.91037 16.1347ZM14.0363 15.0787C14.0363 15.6667 14.5045 16.1347 15.0927 16.1347C15.6689 16.1347 16.1371 15.6667 16.1371 15.0787C16.1371 14.5039 15.6689 14.0346 15.0927 14.0346C14.5045 14.0346 14.0363 14.5039 14.0363 15.0787ZM8.92238 7.86656C9.49859 7.86656 9.96677 8.33457 9.96677 8.91058C9.96677 9.49979 9.49859 9.96659 8.92238 9.96659C8.34616 9.96659 7.86598 9.49979 7.86598 8.91058C7.86598 8.33457 8.34616 7.86656 8.92238 7.86656Z" fill="white"/>
</svg>
