<svg width="260" height="158" viewBox="0 0 260 158" fill="none" xmlns="http://www.w3.org/2000/svg">
<g clip-path="url(#clip0_1434_31223)">
<path d="M21.5248 34.1756C28.9248 34.1756 34.9237 28.1768 34.9237 20.7768C34.9237 13.3768 28.9248 7.37793 21.5248 7.37793C14.1248 7.37793 8.12598 13.3768 8.12598 20.7768C8.12598 28.1768 14.1248 34.1756 21.5248 34.1756Z" fill="#FF6584"/>
<path d="M129.329 157.525C200.755 157.525 258.658 155.177 258.658 152.282C258.658 149.386 200.755 147.039 129.329 147.039C57.9025 147.039 0 149.386 0 152.282C0 155.177 57.9025 157.525 129.329 157.525Z" fill="#E6E6E6"/>
<path d="M32.9146 86.5738C51.0928 86.5738 65.8291 71.8374 65.8291 53.6592C65.8291 35.481 51.0928 20.7446 32.9146 20.7446C14.7364 20.7446 0 35.481 0 53.6592C0 71.8374 14.7364 86.5738 32.9146 86.5738Z" fill="#ADA985"/>
<path d="M36.0874 152.8H29.3457L32.419 48.7021L36.0874 152.8Z" fill="#3F3D56"/>
<path d="M33.0133 68.431L40.2507 58.418L32.9142 70.9095L32.1211 69.5215L33.0133 68.431Z" fill="#3F3D56"/>
<path d="M32.2205 78.5433L24.9834 68.5303L32.3199 81.0218L33.113 79.6338L32.2205 78.5433Z" fill="#3F3D56"/>
<path d="M241.035 152.909H234.294L237.367 48.8115L241.035 152.909Z" fill="#3F3D56"/>
<path d="M237.962 68.5409L245.199 58.5278L237.862 71.0193L237.069 69.6314L237.962 68.5409Z" fill="#3F3D56"/>
<path d="M237.169 78.6532L229.932 68.6401L237.268 81.1317L238.061 79.7437L237.169 78.6532Z" fill="#3F3D56"/>
<path d="M133.714 152.891C167.577 152.891 195.029 125.44 195.029 91.5761C195.029 57.7126 167.577 30.2607 133.714 30.2607C99.8502 30.2607 72.3984 57.7126 72.3984 91.5761C72.3984 125.44 99.8502 152.891 133.714 152.891Z" fill="#3F3D56"/>
<path d="M133.713 147.816C164.773 147.816 189.953 122.637 189.953 91.5765C189.953 60.5162 164.773 35.3369 133.713 35.3369C102.653 35.3369 77.4736 60.5162 77.4736 91.5765C77.4736 122.637 102.653 147.816 133.713 147.816Z" fill="white"/>
<path d="M133.51 99.2914C137.659 99.2914 141.022 95.9281 141.022 91.7792C141.022 87.6304 137.659 84.2671 133.51 84.2671C129.361 84.2671 125.998 87.6304 125.998 91.7792C125.998 95.9281 129.361 99.2914 133.51 99.2914Z" fill="#3F3D56"/>
<path d="M135.134 38.1792H131.886V44.2701H135.134V38.1792Z" fill="#3F3D56"/>
<path d="M135.134 139.289H131.886V145.38H135.134V139.289Z" fill="#3F3D56"/>
<path d="M86.001 93.4038V90.1553H79.91V93.4038H86.001Z" fill="#3F3D56"/>
<path d="M187.11 93.4038V90.1553H181.019V93.4038H187.11Z" fill="#3F3D56"/>
<path d="M131.345 95.0402L134.121 88.6924L168.907 107.958L131.345 95.0402Z" fill="#3F3D56"/>
<path d="M141.631 15.4395H125.795V33.7122H141.631V15.4395Z" fill="#3F3D56"/>
<path d="M133.713 20.5153C143.805 20.5153 151.986 18.2428 151.986 15.4395C151.986 12.6363 143.805 10.3638 133.713 10.3638C123.621 10.3638 115.44 12.6363 115.44 15.4395C115.44 18.2428 123.621 20.5153 133.713 20.5153Z" fill="#3F3D56"/>
<path d="M167.924 102.438L166.909 103.86C166.909 103.86 162.24 109.341 162.036 106.702C161.833 104.063 165.488 102.235 165.488 102.235L167.518 101.017L167.924 102.438Z" fill="#FFB8B8"/>
<path d="M196.824 107.233L197.675 108.759C197.675 108.759 200.631 115.326 198.158 114.38C195.686 113.434 195.598 109.349 195.598 109.349L195.366 106.992L196.824 107.233Z" fill="#FFB8B8"/>
<path d="M192.254 80.1793C195.669 80.1793 198.437 77.4115 198.437 73.9971C198.437 70.5828 195.669 67.8149 192.254 67.8149C188.84 67.8149 186.072 70.5828 186.072 73.9971C186.072 77.4115 188.84 80.1793 192.254 80.1793Z" fill="#2F2E41"/>
<path d="M191.679 124.772L192.491 130.051V131.675H197.161V129.645C197.161 129.645 197.364 125.99 196.551 124.975C195.739 123.96 191.679 124.772 191.679 124.772Z" fill="#FFB8B8"/>
<path d="M183.354 124.772L184.167 130.051V131.675H188.836V129.645C188.836 129.645 189.039 125.99 188.227 124.975C187.415 123.96 183.354 124.772 183.354 124.772Z" fill="#FFB8B8"/>
<path d="M186.497 82.3691C186.497 82.3691 184.701 83.3158 185.928 85.4692C187.154 87.6226 194.352 109.901 194.352 109.901L198.505 108.722L194.843 94.6326L192.746 85.7773L186.497 82.3691Z" fill="#ADA985"/>
<path d="M191.577 80.4097C194.156 80.4097 196.247 78.319 196.247 75.74C196.247 73.161 194.156 71.0703 191.577 71.0703C188.998 71.0703 186.907 73.161 186.907 75.74C186.907 78.319 188.998 80.4097 191.577 80.4097Z" fill="#FFB8B8"/>
<path d="M193.709 76.4507L193.1 85.9931L188.836 82.9477C188.836 82.9477 190.257 77.2628 189.851 76.8567L193.709 76.4507Z" fill="#FFB8B8"/>
<path d="M193.709 85.181L189.116 81.7797C189.116 81.7797 187.009 80.9173 186.4 81.9325C185.791 82.9476 182.746 97.9719 184.37 100.814C184.37 100.814 193.1 102.642 194.927 101.627L195.74 96.3477C195.74 96.3477 196.755 93.0992 195.13 91.0689L193.709 85.181Z" fill="#ADA985"/>
<path d="M187.618 82.1354C187.618 82.1354 185.994 80.9172 184.572 82.9475C183.151 84.9778 166.097 101.017 166.097 101.017L168.939 104.266L180.106 94.9263L187.212 89.2415L187.618 82.1354Z" fill="#ADA985"/>
<path d="M195.029 101.525C195.029 101.525 184.979 99.5959 183.964 101.017L183.761 103.25C183.761 103.25 181.527 107.514 182.745 114.417C183.964 121.32 183.151 125.584 183.151 125.584C183.151 125.584 188.633 124.975 192.694 125.584C196.755 126.193 197.364 125.584 197.364 125.584L195.029 101.525Z" fill="#2F2E41"/>
<path d="M197.567 130.863L191.679 131.066L193.709 146.293C193.709 146.293 192.085 152.79 193.912 153.196C195.182 153.453 196.474 153.589 197.77 153.602C197.77 153.602 199.597 155.43 201.627 155.226C202.976 155.054 204.282 154.642 205.485 154.008C205.485 154.008 205.891 152.79 204.47 152.384C203.048 151.978 199.191 150.76 198.379 146.496L197.567 130.863Z" fill="#2F2E41"/>
<path d="M189.242 130.863L183.354 131.066L185.385 146.293C185.385 146.293 183.761 152.79 185.588 153.196C186.858 153.453 188.15 153.589 189.445 153.602C189.445 153.602 191.273 155.43 193.303 155.226C194.651 155.054 195.958 154.642 197.161 154.008C197.161 154.008 197.567 152.79 196.145 152.384C194.724 151.978 190.867 150.76 190.055 146.496L189.242 130.863Z" fill="#2F2E41"/>
<path d="M194.417 70.0489C195.829 70.0489 196.975 68.9036 196.975 67.4908C196.975 66.0779 195.829 64.9326 194.417 64.9326C193.004 64.9326 191.858 66.0779 191.858 67.4908C191.858 68.9036 193.004 70.0489 194.417 70.0489Z" fill="#2F2E41"/>
<path d="M197.828 66.105C197.828 65.4727 197.594 64.8628 197.17 64.393C196.747 63.9231 196.165 63.6266 195.536 63.5607C195.625 63.5515 195.714 63.5469 195.803 63.5469C196.481 63.5469 197.132 63.8164 197.611 64.2961C198.091 64.7759 198.361 65.4266 198.361 66.105C198.361 66.7835 198.091 67.4342 197.611 67.9139C197.132 68.3936 196.481 68.6632 195.803 68.6632C195.714 68.6631 195.625 68.6585 195.536 68.6493C196.165 68.5834 196.747 68.2869 197.17 67.8171C197.594 67.3473 197.828 66.7374 197.828 66.105Z" fill="#2F2E41"/>
<path d="M191.535 75.2447C193.89 75.2447 195.799 74.0994 195.799 72.6866C195.799 71.2737 193.89 70.1284 191.535 70.1284C189.18 70.1284 187.271 71.2737 187.271 72.6866C187.271 74.0994 189.18 75.2447 191.535 75.2447Z" fill="#2F2E41"/>
<path d="M258.691 12.2776C258.517 9.1985 257.255 6.28127 255.13 4.04609C253.005 1.8109 250.155 0.40305 247.089 0.0735382C244.022 -0.255973 240.939 0.514277 238.387 2.24696C235.836 3.97963 233.983 6.56212 233.158 9.53397C233.001 9.52831 232.843 9.52198 232.684 9.52198C229.873 9.52249 227.137 10.4333 224.886 12.1182C222.635 13.803 220.991 16.1713 220.198 18.8688C218.335 18.0502 216.253 17.8726 214.278 18.3638C212.304 18.855 210.548 19.9873 209.285 21.5833H249.879C251.063 21.5867 252.235 21.351 253.327 20.8905C254.418 20.4299 255.404 19.754 256.228 18.903C257.052 18.0521 257.695 17.0438 258.12 15.9383C258.545 14.8329 258.742 13.6531 258.7 12.4696C258.698 12.4057 258.695 12.3417 258.691 12.2776Z" fill="#E6E6E6"/>
<path d="M224.755 39.666C226.686 39.666 228.25 38.1011 228.25 36.1706C228.25 34.2402 226.686 32.6753 224.755 32.6753C222.825 32.6753 221.26 34.2402 221.26 36.1706C221.26 38.1011 222.825 39.666 224.755 39.666Z" fill="#E6E6E6"/>
<path d="M235.309 30.8399C236.916 30.8399 238.219 29.5368 238.219 27.9294C238.219 26.3221 236.916 25.019 235.309 25.019C233.701 25.019 232.398 26.3221 232.398 27.9294C232.398 29.5368 233.701 30.8399 235.309 30.8399Z" fill="#E6E6E6"/>
<path d="M249.514 47.2392C251.444 47.2392 253.009 45.6743 253.009 43.7439C253.009 41.8135 251.444 40.2485 249.514 40.2485C247.583 40.2485 246.019 41.8135 246.019 43.7439C246.019 45.6743 247.583 47.2392 249.514 47.2392Z" fill="#E6E6E6"/>
<path d="M223.007 63.2593C224.938 63.2593 226.502 61.6943 226.502 59.7639C226.502 57.8335 224.938 56.2686 223.007 56.2686C221.077 56.2686 219.512 57.8335 219.512 59.7639C219.512 61.6943 221.077 63.2593 223.007 63.2593Z" fill="#E6E6E6"/>
<path d="M249.514 83.3579C251.444 83.3579 253.009 81.793 253.009 79.8625C253.009 77.9321 251.444 76.3672 249.514 76.3672C247.583 76.3672 246.019 77.9321 246.019 79.8625C246.019 81.793 247.583 83.3579 249.514 83.3579Z" fill="#E6E6E6"/>
<path d="M243.974 147.261C243.975 147.223 243.98 147.186 243.98 147.148C243.98 146.562 243.834 145.986 243.554 145.472C243.273 144.958 242.868 144.522 242.375 144.206C241.882 143.889 241.317 143.702 240.733 143.661C240.149 143.62 239.564 143.727 239.032 143.972C238.532 143.395 237.858 142.999 237.111 142.842C236.365 142.686 235.588 142.779 234.899 143.107C234.21 143.435 233.648 143.979 233.299 144.657C232.949 145.335 232.831 146.108 232.964 146.859C232.946 146.859 232.929 146.857 232.911 146.857C232.355 146.856 231.806 146.988 231.311 147.242C230.816 147.496 230.388 147.864 230.064 148.316C229.74 148.769 229.529 149.292 229.448 149.842C229.366 150.393 229.418 150.955 229.598 151.481C229.777 152.008 230.08 152.484 230.481 152.87C230.882 153.256 231.369 153.541 231.902 153.7C232.435 153.86 232.999 153.89 233.546 153.788C234.093 153.686 234.608 153.455 235.047 153.114C235.325 153.655 235.738 154.114 236.247 154.446C236.756 154.777 237.343 154.971 237.949 155.007C238.556 155.042 239.161 154.919 239.706 154.65C240.25 154.38 240.715 153.973 241.054 153.469C241.47 153.772 241.948 153.979 242.453 154.075C242.958 154.172 243.478 154.156 243.976 154.028C244.475 153.9 244.938 153.664 245.335 153.336C245.731 153.008 246.05 152.597 246.269 152.131C246.488 151.666 246.601 151.158 246.601 150.644C246.601 150.129 246.487 149.621 246.268 149.156C246.049 148.691 245.729 148.28 245.333 147.952C244.936 147.625 244.472 147.389 243.974 147.261Z" fill="#E6E6E6"/>
<path d="M252.718 67.3376C253.522 67.3376 254.175 66.6855 254.175 65.8812C254.175 65.0769 253.522 64.4248 252.718 64.4248C251.914 64.4248 251.262 65.0769 251.262 65.8812C251.262 66.6855 251.914 67.3376 252.718 67.3376Z" fill="#E6E6E6"/>
<path d="M243.397 32.384C244.201 32.384 244.853 31.7319 244.853 30.9276C244.853 30.1232 244.201 29.4712 243.397 29.4712C242.592 29.4712 241.94 30.1232 241.94 30.9276C241.94 31.7319 242.592 32.384 243.397 32.384Z" fill="#E6E6E6"/>
<path d="M238.446 68.5026C239.25 68.5026 239.902 67.8506 239.902 67.0462C239.902 66.2419 239.25 65.5898 238.446 65.5898C237.641 65.5898 236.989 66.2419 236.989 67.0462C236.989 67.8506 237.641 68.5026 238.446 68.5026Z" fill="#E6E6E6"/>
<path d="M239.611 67.0461C240.415 67.0461 241.067 66.394 241.067 65.5897C241.067 64.7854 240.415 64.1333 239.611 64.1333C238.806 64.1333 238.154 64.7854 238.154 65.5897C238.154 66.394 238.806 67.0461 239.611 67.0461Z" fill="#E6E6E6"/>
<path d="M240.485 65.5896C241.289 65.5896 241.941 64.9375 241.941 64.1332C241.941 63.3288 241.289 62.6768 240.485 62.6768C239.68 62.6768 239.028 63.3288 239.028 64.1332C239.028 64.9375 239.68 65.5896 240.485 65.5896Z" fill="#E6E6E6"/>
<path d="M236.989 77.8234C237.793 77.8234 238.445 77.1714 238.445 76.367C238.445 75.5627 237.793 74.9106 236.989 74.9106C236.184 74.9106 235.532 75.5627 235.532 76.367C235.532 77.1714 236.184 77.8234 236.989 77.8234Z" fill="#E6E6E6"/>
<path d="M258.543 94.135C259.348 94.135 260 93.4829 260 92.6786C260 91.8742 259.348 91.2222 258.543 91.2222C257.739 91.2222 257.087 91.8742 257.087 92.6786C257.087 93.4829 257.739 94.135 258.543 94.135Z" fill="#E6E6E6"/>
<path d="M227.376 95.009C228.181 95.009 228.833 94.3569 228.833 93.5526C228.833 92.7482 228.181 92.0962 227.376 92.0962C226.572 92.0962 225.92 92.7482 225.92 93.5526C225.92 94.3569 226.572 95.009 227.376 95.009Z" fill="#E6E6E6"/>
<path d="M229.124 50.1521C229.929 50.1521 230.581 49.5 230.581 48.6957C230.581 47.8913 229.929 47.2393 229.124 47.2393C228.32 47.2393 227.668 47.8913 227.668 48.6957C227.668 49.5 228.32 50.1521 229.124 50.1521Z" fill="#E6E6E6"/>
<path d="M235.824 76.3669C236.628 76.3669 237.28 75.7148 237.28 74.9105C237.28 74.1062 236.628 73.4541 235.824 73.4541C235.019 73.4541 234.367 74.1062 234.367 74.9105C234.367 75.7148 235.019 76.3669 235.824 76.3669Z" fill="#E6E6E6"/>
<path d="M234.368 74.0368C235.172 74.0368 235.824 73.3848 235.824 72.5804C235.824 71.7761 235.172 71.124 234.368 71.124C233.563 71.124 232.911 71.7761 232.911 72.5804C232.911 73.3848 233.563 74.0368 234.368 74.0368Z" fill="#E6E6E6"/>
</g>
<defs>
<clipPath id="clip0_1434_31223">
<rect width="260" height="157.524" fill="white"/>
</clipPath>
</defs>
</svg>
