<svg width="200" height="239" viewBox="0 0 200 239" fill="none" xmlns="http://www.w3.org/2000/svg">
<g clip-path="url(#clip0_1434_31548)">
<path d="M77.4619 195.624C73.4823 191.52 67.7154 189.166 61.6397 189.166L61.4053 189.166C57.4035 189.168 53.473 188.107 50.0159 186.091L49.6562 185.881L49.9459 185.583C51.5146 183.96 52.8243 182.105 53.8294 180.084C53.1156 180.75 52.2642 181.25 51.3355 181.55C50.4068 181.85 49.4235 181.943 48.4553 181.82C47.433 181.699 46.4516 181.347 45.5847 180.792C44.7178 180.236 43.9879 179.492 43.4497 178.614C41.3262 175.169 38.7949 170.28 38.7949 166.556C38.7982 163.408 39.4574 160.295 40.7303 157.416C42.0033 154.537 43.8621 151.954 46.1883 149.833C47.661 148.505 48.8373 146.882 49.6406 145.069C50.4438 143.256 50.8559 141.294 50.8501 139.311L50.8489 139.029C50.8485 136.418 51.1675 133.817 51.7989 131.284L51.863 131.028L52.1262 131.037C53.8234 131.095 55.5215 130.953 57.1855 130.614C55.6247 130.422 54.0978 130.016 52.6481 129.407L52.365 129.292L52.4611 129.002C59.0849 124.901 74.0368 127.025 82.7154 107.169C89.7525 91.0683 114.582 121.461 114.582 139.029C114.582 140.822 112.808 143.19 114.136 144.375C128.492 157.183 118.586 165.407 115.463 173.683C114.722 175.647 116.329 177.802 116.329 179.927C116.329 180.287 116.32 180.659 116.302 181.032L116.274 181.606L115.795 181.288C114.848 180.668 113.971 179.948 113.177 179.14C114 181.035 114.388 183.09 114.312 185.154C114.237 187.219 113.699 189.24 112.739 191.069C111.234 193.909 109.779 195.941 108.413 197.111C104.037 200.856 98.3952 202.787 92.6421 202.511C86.889 202.235 81.4588 199.771 77.4619 195.624H77.4619Z" fill="#E6E6E6"/>
<path d="M101.497 238.344C101.595 238.344 101.689 238.308 101.763 238.244C101.837 238.18 101.885 238.092 101.899 237.995C101.916 237.873 103.609 225.669 102.089 209.45C100.685 194.471 96.1783 172.896 82.6766 155.176C82.6443 155.134 82.6039 155.098 82.5577 155.071C82.5116 155.044 82.4605 155.026 82.4076 155.019C82.3546 155.012 82.3008 155.015 82.2491 155.029C82.1974 155.043 82.149 155.066 82.1065 155.099C82.0639 155.131 82.0283 155.172 82.0014 155.218C81.9745 155.264 81.957 155.315 81.9499 155.368C81.9428 155.421 81.9462 155.475 81.9599 155.527C81.9736 155.578 81.9973 155.627 82.0298 155.669C95.4148 173.235 99.8856 194.652 101.279 209.526C102.79 225.651 101.111 237.76 101.094 237.88C101.086 237.938 101.09 237.996 101.107 238.052C101.123 238.108 101.152 238.16 101.19 238.204C101.228 238.248 101.275 238.283 101.328 238.307C101.381 238.331 101.439 238.344 101.497 238.344V238.344Z" fill="#3F3D56"/>
<path d="M90.4795 180.17C90.5654 180.17 90.6491 180.143 90.7186 180.092C90.7882 180.042 90.8399 179.971 90.8665 179.889C90.8931 179.807 90.8931 179.719 90.8666 179.638C90.8401 179.556 90.7884 179.485 90.7189 179.434C86.8717 176.83 82.7157 174.715 78.3464 173.136C71.5203 170.637 61.1402 168.371 50.4541 171.772C50.4031 171.788 50.3558 171.814 50.3149 171.849C50.2739 171.883 50.2402 171.925 50.2156 171.973C50.191 172.02 50.1759 172.072 50.1714 172.126C50.1668 172.179 50.1728 172.232 50.1891 172.283C50.2053 172.334 50.2314 172.382 50.2659 172.422C50.3004 172.463 50.3426 172.497 50.3902 172.521C50.4377 172.546 50.4896 172.561 50.5428 172.565C50.5961 172.57 50.6498 172.564 50.7007 172.547C61.1679 169.216 71.3599 171.444 78.0668 173.9C82.3658 175.451 86.4552 177.531 90.2408 180.092C90.3101 180.143 90.3937 180.17 90.4795 180.17Z" fill="#3F3D56"/>
<path d="M109.09 133.818C109.096 133.732 109.075 133.647 109.029 133.574C108.984 133.501 108.917 133.444 108.837 133.412C108.758 133.379 108.67 133.373 108.587 133.394C108.503 133.414 108.429 133.461 108.373 133.526C105.499 137.176 103.089 141.169 101.2 145.413C98.2161 152.042 95.2089 162.232 97.8315 173.135C97.8439 173.187 97.8665 173.236 97.8979 173.279C97.9292 173.322 97.9688 173.359 98.0144 173.387C98.06 173.415 98.1106 173.433 98.1634 173.442C98.2161 173.45 98.2701 173.448 98.322 173.436C98.374 173.423 98.423 173.4 98.4662 173.369C98.5094 173.338 98.546 173.298 98.5738 173.252C98.6017 173.207 98.6203 173.156 98.6286 173.103C98.6369 173.051 98.6347 172.997 98.6221 172.945C96.0534 162.265 99.0097 152.26 101.942 145.747C103.799 141.571 106.168 137.642 108.995 134.051C109.05 133.985 109.083 133.904 109.09 133.818Z" fill="#3F3D56"/>
<path d="M187.522 237.913H155.152L155.013 237.661C154.599 236.91 154.199 236.115 153.826 235.298C150.491 228.159 149.082 219.995 147.839 212.792L146.902 207.363C146.789 206.705 146.874 206.029 147.148 205.42C147.421 204.811 147.87 204.298 148.436 203.946C149.003 203.593 149.662 203.418 150.329 203.443C150.996 203.467 151.64 203.69 152.179 204.083C157.099 207.663 162.02 211.239 166.943 214.811C168.807 216.168 170.936 217.738 172.975 219.434C173.172 218.479 173.378 217.52 173.583 216.575C173.725 215.923 174.059 215.328 174.541 214.866C175.023 214.404 175.632 214.097 176.29 213.983C176.948 213.869 177.625 213.954 178.234 214.227C178.843 214.501 179.357 214.949 179.71 215.516L183.497 221.601C186.259 226.045 188.697 230.424 188.201 235.146C188.203 235.204 188.199 235.261 188.188 235.318C188.088 236.093 187.904 236.856 187.638 237.591L187.522 237.913Z" fill="#F0F0F0"/>
<path d="M172.441 110.654L166.194 87.5307C165.926 86.5519 165.285 85.7175 164.407 85.2076C163.53 84.6977 162.487 84.5532 161.504 84.8053C160.996 84.9357 160.519 85.1683 160.104 85.4889C159.688 85.8095 159.342 86.2114 159.087 86.6701C158.831 87.1289 158.672 87.6347 158.619 88.157C158.565 88.6792 158.619 89.2069 158.776 89.7078L166.002 113.528L169.782 128.187C169.232 128.607 168.824 129.187 168.614 129.847C168.404 130.507 168.403 131.216 168.61 131.877C168.818 132.538 169.223 133.12 169.772 133.542C170.321 133.964 170.987 134.208 171.679 134.238C172.371 134.269 173.056 134.086 173.641 133.715C174.225 133.343 174.681 132.8 174.946 132.16C175.211 131.52 175.273 130.814 175.123 130.138C174.973 129.461 174.619 128.848 174.108 128.38L172.441 110.654Z" fill="#A0616A"/>
<path d="M119.872 105.674L138.854 91.0654C139.656 90.4442 140.182 89.5323 140.318 88.5267C140.454 87.5211 140.189 86.5024 139.581 85.6903C139.266 85.2702 138.869 84.9186 138.414 84.657C137.958 84.3953 137.455 84.2291 136.933 84.1685C136.412 84.1078 135.884 84.154 135.381 84.3042C134.878 84.4544 134.41 84.7055 134.008 85.0421L114.756 100.821L102.653 109.915C102.054 109.567 101.363 109.412 100.673 109.47C99.9823 109.529 99.3268 109.798 98.7951 110.243C98.2634 110.687 97.8813 111.284 97.7007 111.952C97.5201 112.621 97.5497 113.329 97.7856 113.981C98.0215 114.632 98.4522 115.195 99.0191 115.593C99.5861 115.991 100.262 116.205 100.955 116.206C101.647 116.206 102.324 115.994 102.891 115.597C103.459 115.2 103.891 114.637 104.128 113.986L119.872 105.674Z" fill="#A0616A"/>
<path d="M135.343 109.031L134.506 127.718L160.777 122.008C158.541 114.499 157.02 113.219 158.7 107.993L135.343 109.031Z" fill="#A0616A"/>
<path d="M151.496 74.7744H142.742L138.983 81.2071L137.192 81.1083C136.316 81.0599 135.439 81.1907 134.615 81.4927C133.791 81.7946 133.038 82.2614 132.4 82.8645C131.763 83.4676 131.256 84.1943 130.909 85.0002C130.562 85.8062 130.383 86.6744 130.383 87.5518L132.59 90.9725C132.59 90.9725 128.643 97.8513 134.328 101.235C134.328 101.235 133.314 107.612 134.328 107.543C135.343 107.474 137.678 106.177 135.343 107.474C133.007 108.772 133.181 108.946 133.483 109.249L133.785 109.551L158.346 113.675C158.346 113.675 159.065 108.913 159.142 108.064C159.22 107.215 158.7 109.291 159.22 107.215C159.739 105.139 160.517 105.917 159.739 105.139C158.96 104.36 164.783 94.7141 162.391 90.9725L166.227 87.2309C166.227 83.6418 160.463 80.7323 156.873 80.7323H156.414L151.496 74.7744Z" fill="#E6E6E6"/>
<path d="M130.405 230.709H126.862L125.177 217.043L130.406 217.044L130.405 230.709Z" fill="#A0616A"/>
<path d="M119.712 235.937C119.713 236.334 119.871 236.714 120.152 236.995C120.432 237.276 120.812 237.435 121.209 237.437H127.879L128.085 237.009L129.029 235.062L129.394 237.009L129.475 237.437H131.99L131.954 237.006L131.284 228.962L130.406 228.908L126.615 228.683L125.683 228.626V231.028C124.976 231.78 119.43 234.622 119.712 235.937Z" fill="#2F2E41"/>
<path d="M183.06 221.429L180.081 223.346L171.27 212.765L175.667 209.936L183.06 221.429Z" fill="#A0616A"/>
<path d="M176.895 231.611C177.112 231.944 177.45 232.178 177.838 232.263C178.226 232.347 178.631 232.276 178.966 232.063L184.576 228.455L184.518 227.983L184.258 225.835L185.618 227.275L185.918 227.591L188.034 226.23L187.77 225.887L182.854 219.484L182.087 219.914L178.777 221.776L177.962 222.232L179.262 224.252C179.074 225.267 175.947 230.658 176.895 231.611Z" fill="#2F2E41"/>
<path d="M199.588 238.163L89.8799 238.27C89.7704 238.269 89.6656 238.225 89.5884 238.148C89.5111 238.07 89.4678 237.965 89.4678 237.856C89.4678 237.746 89.5111 237.641 89.5884 237.563C89.6656 237.486 89.7704 237.442 89.8799 237.441L199.588 237.334C199.697 237.335 199.802 237.379 199.879 237.457C199.957 237.534 200 237.639 200 237.749C200 237.858 199.957 237.963 199.879 238.041C199.802 238.118 199.697 238.162 199.588 238.163Z" fill="#CACACA"/>
<path d="M160.365 119.897C160.365 119.897 143.572 128.78 134.69 122.72C134.69 122.72 132.747 132.13 131.968 132.909C131.19 133.687 129.949 134.027 130.829 134.895C131.709 135.764 132.198 136.937 130.526 138.426C128.854 139.916 127.186 139.443 128.799 140.977C130.411 142.511 123.923 180.144 123.923 180.144C123.923 180.144 124.961 215.14 123.923 216.198C122.885 217.257 121.497 217.494 122.84 218.803C124.182 220.112 124.182 219.096 124.182 220.902V222.707L124.797 224.501H133.223C133.223 224.501 135.257 222.139 133.223 220.087C131.19 218.035 133.842 217.474 134.462 215.549C135.083 213.623 136.121 215.7 135.083 213.623C134.045 211.547 133.546 211.942 133.536 210.577C133.525 209.211 148.838 155.748 148.838 155.748L150.692 185.339L173.001 217.747L179.567 212.822C179.567 212.822 174.786 206.092 175.904 205.167C177.022 204.242 172.609 203.081 174.001 202.038C175.392 200.994 172.043 199.942 173.305 198.559C174.567 197.175 171.566 193.688 169.826 193.688C168.087 193.688 165.646 187.876 165.646 187.876L169.29 141.958L160.365 119.897Z" fill="#2F2E41"/>
<path d="M142.566 55.8859C142.447 56.0419 141.501 55.9579 140.362 55.7917C138.111 55.463 137.804 55.8536 136.121 57.3844C133.683 59.6019 135.069 73.1272 133.871 76.0577L133.484 76.3429C134.252 76.1963 135.006 75.9853 135.738 75.7122C136.152 74.4071 136.567 73.0978 136.984 71.7938C137.378 72.8084 137.626 73.8739 137.72 74.9583C138.3 74.7299 138.876 74.1712 141.297 73.4219C142.516 72.5948 151.338 71.7631 152.472 71.3992C155.35 61.6067 150.712 57.6466 142.566 55.8859Z" fill="#2F2E41"/>
<path d="M145.545 70.9863C150.2 70.9863 153.975 67.2122 153.975 62.5566C153.975 57.901 150.2 54.127 145.545 54.127C140.889 54.127 137.115 57.901 137.115 62.5566C137.115 67.2122 140.889 70.9863 145.545 70.9863Z" fill="#A0616A"/>
<path d="M150.852 55.1432C150.377 55.0731 149.919 54.9128 149.504 54.6709C149.299 54.5467 149.132 54.3672 149.024 54.1528C148.915 53.9385 148.869 53.6979 148.891 53.4587C148.995 52.8597 149.672 52.5021 150.279 52.5385C150.883 52.6256 151.457 52.8579 151.952 53.2155C151.897 52.6367 151.65 52.0929 151.249 51.6715C150.849 51.2502 150.318 50.9756 149.743 50.892C150.541 50.849 151.371 50.8111 152.109 51.118C152.847 51.425 153.462 52.185 153.329 52.9731C154.569 52.8133 155.793 53.6777 156.305 54.819C156.817 55.9602 156.716 57.3005 156.306 58.4826C156.266 58.6636 156.187 58.8339 156.075 58.9818C155.963 59.1297 155.821 59.2518 155.658 59.3399C155.24 59.4983 154.791 59.2326 154.429 58.9707C152.539 57.6023 150.819 56.0137 149.305 54.2383" fill="#2F2E41"/>
<path d="M154.527 71.5188C154.17 71.6871 154.356 72.313 154.078 72.5933C153.957 72.712 153.812 72.8024 153.652 72.8581C153.611 72.3356 153.489 71.8227 153.292 71.3372C153.255 71.2489 153.196 71.1503 153.102 71.1581C152.993 71.1711 152.965 71.3138 152.962 71.4202C152.94 71.9481 152.823 72.4677 152.617 72.9541C152.614 72.9593 152.612 72.9671 152.609 72.9722C152.529 72.9696 152.446 72.9671 152.368 72.9645C151.766 72.9411 150.432 71.3943 150.136 71.9185C151.179 70.0681 152.451 67.2859 152.645 65.1707C152.713 64.7279 152.68 64.2755 152.549 63.8471C152.481 63.6339 152.353 63.4448 152.181 63.3022C152.008 63.1596 151.798 63.0695 151.576 63.0425C151.466 63.0375 151.357 63.0568 151.256 63.099C151.155 63.1412 151.064 63.2053 150.99 63.2866C150.917 63.3679 150.862 63.4646 150.83 63.5695C150.798 63.6745 150.789 63.7852 150.805 63.8938L150.655 63.873C149.258 62.7363 150.463 60.7612 148.838 59.9801C148.288 59.7153 144.919 60.6003 144.325 60.4446C144.312 59.8185 144.184 59.2001 143.948 58.6201C143.912 58.5319 143.852 58.4332 143.759 58.441C143.65 58.454 143.621 58.5967 143.619 58.7031C143.597 59.231 143.48 59.7506 143.274 60.237C142.45 60.1202 141.612 60.1643 140.805 60.3667C140.094 60.5536 139.42 60.8754 138.706 61.0467C138.353 61.1548 137.982 61.1899 137.615 61.1497C137.248 61.1096 136.894 60.995 136.573 60.8131C135.667 60.2058 135.508 58.8615 135.96 57.87C136.287 57.2339 136.729 56.6637 137.263 56.1883C137.67 55.7938 138.093 55.4149 138.516 55.0359C138.895 54.696 139.274 54.356 139.653 54.016C140.13 53.567 140.638 53.1525 141.174 52.7754C142.029 52.2149 142.99 51.835 143.997 51.6592C145.005 51.4833 146.037 51.5152 147.032 51.7528C148.226 52.0383 149.822 51.6361 150.914 52.1941C151.485 52.4873 152.749 53.6111 153.25 54.0108C154.532 55.0308 153.665 54.1997 155.067 54.7894C158.411 56.1955 156.932 70.3867 154.527 71.5188Z" fill="#2F2E41"/>
<path d="M61.1915 133.046C90.0636 133.046 113.469 109.64 113.469 80.7682C113.469 51.8961 90.0636 28.4907 61.1915 28.4907C32.3195 28.4907 8.91406 51.8961 8.91406 80.7682C8.91406 109.64 32.3195 133.046 61.1915 133.046Z" fill="white"/>
<path d="M61.1919 133.568C32.0783 133.568 8.39258 109.882 8.39258 80.7685C8.39258 51.655 32.0783 27.9692 61.1919 27.9692C90.3054 27.9692 113.991 51.655 113.991 80.7685C113.991 109.882 90.3054 133.568 61.1919 133.568ZM61.1919 29.0129C32.6538 29.0129 9.43623 52.2304 9.43623 80.7685C9.43623 109.307 32.6538 132.524 61.1919 132.524C89.73 132.524 112.948 109.307 112.948 80.7685C112.948 52.2304 89.7299 29.0129 61.1919 29.0129Z" fill="#ADA985"/>
<path d="M54.06 107.976C53.1573 107.976 52.2669 107.766 51.4595 107.362C50.6521 106.959 49.9499 106.372 49.4084 105.65L35.1463 86.6335C34.6881 86.0226 34.3548 85.3274 34.1653 84.5876C33.9758 83.8479 33.9338 83.078 34.0419 82.3221C34.1499 81.5661 34.4057 80.8389 34.7948 80.1818C35.1839 79.5247 35.6986 78.9507 36.3096 78.4925C36.9205 78.0344 37.6157 77.701 38.3554 77.5115C39.0952 77.322 39.865 77.2801 40.621 77.3881C41.3769 77.4961 42.1042 77.752 42.7613 78.1411C43.4184 78.5302 43.9924 79.0449 44.4505 79.6558L53.7813 92.0959L77.7461 56.1491C78.6021 54.8668 79.9322 53.977 81.444 53.6751C82.9559 53.3732 84.5257 53.684 85.8085 54.5392C87.0912 55.3944 87.9819 56.7239 88.2847 58.2356C88.5875 59.7472 88.2777 61.3172 87.4233 62.6005L58.8991 105.387C58.3831 106.161 57.6891 106.799 56.8753 107.25C56.0615 107.7 55.1516 107.949 54.2219 107.975C54.1679 107.976 54.114 107.976 54.06 107.976Z" fill="#ADA985"/>
<path d="M115.053 31.7573C115.199 30.7579 114.152 29.7782 112.715 29.5691C111.278 29.3601 109.996 30.0009 109.85 31.0003C109.705 31.9998 110.752 32.9795 112.188 33.1886C113.625 33.3976 114.908 32.7568 115.053 31.7573Z" fill="#E6E6E6"/>
<path d="M132.159 30.0879C132.304 29.0885 131.257 28.1088 129.82 27.8997C128.384 27.6907 127.101 28.3315 126.956 29.3309C126.81 30.3304 127.857 31.3101 129.294 31.5191C130.731 31.7282 132.013 31.0874 132.159 30.0879Z" fill="#3F3D56"/>
<path d="M110.369 17.9087C110.514 16.9092 109.467 15.9296 108.03 15.7205C106.594 15.5115 105.311 16.1522 105.166 17.1517C105.02 18.1512 106.067 19.1309 107.504 19.3399C108.941 19.549 110.223 18.9082 110.369 17.9087Z" fill="#FF6584"/>
<path d="M102.935 12.236C102.942 11.3184 102.43 10.5707 101.792 10.5659C101.154 10.561 100.631 11.3009 100.624 12.2185C100.617 13.1361 101.129 13.8838 101.767 13.8886C102.405 13.8934 102.928 13.1535 102.935 12.236Z" fill="#E6E6E6"/>
<path d="M100.415 1.67006C100.422 0.752501 99.91 0.00475941 99.2717 -6.72741e-05C98.6334 -0.00489396 98.1103 0.735022 98.1034 1.65258C98.0964 2.57014 98.6083 3.31788 99.2466 3.3227C99.8849 3.32753 100.408 2.58761 100.415 1.67006Z" fill="#3F3D56"/>
<path d="M120.016 20.2653C120.023 19.3477 119.512 18.6 118.873 18.5951C118.235 18.5903 117.712 19.3302 117.705 20.2478C117.698 21.1654 118.21 21.9131 118.848 21.9179C119.486 21.9227 120.009 21.1828 120.016 20.2653Z" fill="#E6E6E6"/>
<path d="M111.75 24.3927C111.757 23.4752 111.245 22.7274 110.607 22.7226C109.968 22.7178 109.445 23.4577 109.438 24.3753C109.431 25.2928 109.943 26.0405 110.582 26.0454C111.22 26.0502 111.743 25.3103 111.75 24.3927Z" fill="#FF6584"/>
<path d="M123.258 32.0207C123.265 31.1031 122.753 30.3554 122.114 30.3505C121.476 30.3457 120.953 31.0856 120.946 32.0032C120.939 32.9207 121.451 33.6685 122.089 33.6733C122.728 33.6781 123.251 32.9382 123.258 32.0207Z" fill="#3F3D56"/>
<path d="M16.9496 155.604C17.095 154.605 16.0482 153.625 14.6115 153.416C13.1747 153.207 11.8921 153.848 11.7467 154.847C11.6013 155.847 12.6481 156.826 14.0848 157.035C15.5216 157.244 16.8042 156.604 16.9496 155.604Z" fill="#E6E6E6"/>
<path d="M34.0551 153.935C34.2005 152.936 33.1537 151.956 31.7169 151.747C30.2802 151.538 28.9976 152.179 28.8522 153.178C28.7068 154.178 29.7536 155.157 31.1903 155.366C32.6271 155.575 33.9096 154.935 34.0551 153.935Z" fill="#3F3D56"/>
<path d="M12.265 141.755C12.4105 140.756 11.3636 139.776 9.9269 139.567C8.49016 139.358 7.20755 139.999 7.06213 140.998C6.91671 141.998 7.96354 142.978 9.40029 143.187C10.837 143.396 12.1196 142.755 12.265 141.755Z" fill="#FF6584"/>
<path d="M4.83187 136.083C4.83881 135.165 4.32699 134.417 3.68869 134.413C3.05039 134.408 2.52731 135.148 2.52038 136.065C2.51344 136.983 3.02527 137.73 3.66357 137.735C4.30187 137.74 4.82493 137 4.83187 136.083Z" fill="#E6E6E6"/>
<path d="M2.31135 125.517C2.31829 124.6 1.80647 123.852 1.16817 123.847C0.529873 123.842 0.00680609 124.582 -0.000132272 125.5C-0.00707064 126.417 0.504747 127.165 1.14305 127.17C1.78135 127.175 2.30441 126.435 2.31135 125.517Z" fill="#3F3D56"/>
<path d="M21.9129 144.112C21.9199 143.194 21.408 142.447 20.7697 142.442C20.1314 142.437 19.6084 143.177 19.6014 144.094C19.5945 145.012 20.1063 145.76 20.7446 145.765C21.3829 145.769 21.906 145.03 21.9129 144.112Z" fill="#E6E6E6"/>
<path d="M13.6463 148.239C13.6533 147.322 13.1414 146.574 12.5031 146.569C11.8648 146.564 11.3418 147.304 11.3348 148.222C11.3279 149.139 11.8397 149.887 12.478 149.892C13.1163 149.897 13.6394 149.157 13.6463 148.239Z" fill="#FF6584"/>
<path d="M25.1541 155.868C25.1611 154.95 24.6492 154.203 24.0109 154.198C23.3726 154.193 22.8496 154.933 22.8426 155.85C22.8357 156.768 23.3475 157.516 23.9858 157.52C24.6241 157.525 25.1472 156.785 25.1541 155.868Z" fill="#3F3D56"/>
</g>
<defs>
<clipPath id="clip0_1434_31548">
<rect width="200" height="238.344" fill="white"/>
</clipPath>
</defs>
</svg>
