<svg width="180" height="113" viewBox="0 0 180 113" fill="none" xmlns="http://www.w3.org/2000/svg">
<path fill-rule="evenodd" clip-rule="evenodd" d="M138.636 38.2359C140.042 42.2129 143.626 45.1751 147.844 45.1751H158.626C169.876 45.1751 180 55.299 180 67.6751V81.1773C180 89.049 173.249 95.8001 165.377 95.8001C163.511 95.8001 162.021 94.2798 161.779 92.4299C160.058 79.325 148.484 68.8012 135 68.8012C123.448 68.8012 113.299 76.5244 109.545 86.9774C107.865 91.6554 103.972 95.8001 99.0011 95.8001H80.9989C76.0283 95.8001 72.1349 91.6554 70.4549 86.9774C66.701 76.5244 56.5515 68.8012 45 68.8012C31.5158 68.8012 19.9421 79.325 18.2214 92.4299C17.9785 94.2798 16.4886 95.8001 14.6228 95.8001C6.7511 95.8001 0 89.049 0 81.1773V66.549C0 55.299 10.1239 45.1751 21.3739 45.1751H21.8725C26.1628 45.1751 29.7804 42.1124 31.1813 38.0573C37.7099 19.1582 54.1928 5.31183 74.2511 1.30115C102.245 -4.92149 129.288 11.7934 138.636 38.2359ZM95.625 18.1762C79.0756 13.5786 61.0217 20.2544 51.907 34.5172C48.7294 39.4897 53.0261 45.1751 58.9272 45.1751H110.139C116.281 45.1751 120.581 39.0876 117.133 34.0046C111.834 26.1957 104.28 20.5349 95.625 18.1762Z" fill="#ADA985"/>
<path d="M28.125 95.8001C28.125 86.8023 36.0022 78.9251 45 78.9251C53.9978 78.9251 61.875 86.8023 61.875 95.8001C61.875 104.798 53.9978 112.675 45 112.675C36.0022 112.675 28.125 104.798 28.125 95.8001Z" fill="#ADA985"/>
<path d="M151.875 95.8001C151.875 105.122 144.322 112.675 135 112.675C125.678 112.675 118.125 105.122 118.125 95.8001C118.125 86.4782 125.678 78.9251 135 78.9251C144.322 78.9251 151.875 86.4782 151.875 95.8001Z" fill="#ADA985"/>
</svg>
