<svg width="225" height="220" viewBox="0 0 225 220" fill="none" xmlns="http://www.w3.org/2000/svg">
<g clip-path="url(#clip0_1435_35040)">
<path d="M142.839 49.4774H82.2117C80.8301 49.479 79.5056 50.0296 78.5287 51.0081C77.5517 51.9867 77.0022 53.3135 77.0005 54.6974V189.671L76.3056 189.884L61.4327 194.446C60.7278 194.661 59.9665 194.588 59.3158 194.241C58.6651 193.895 58.1782 193.304 57.9621 192.598L13.7219 47.8452C13.5066 47.1391 13.5799 46.3763 13.9259 45.7244C14.2718 45.0725 14.862 44.5849 15.5667 44.3686L38.4859 37.3389L104.929 16.9667L127.848 9.93697C128.197 9.82944 128.564 9.79187 128.927 9.8264C129.29 9.86092 129.643 9.96688 129.966 10.1382C130.288 10.3095 130.574 10.5428 130.806 10.8248C131.038 11.1067 131.213 11.4318 131.319 11.7814L142.628 48.7813L142.839 49.4774Z" fill="#F2F2F2"/>
<path d="M156.069 48.7809L142.44 4.18745C142.213 3.44444 141.842 2.75347 141.349 2.15402C140.855 1.55457 140.249 1.0584 139.564 0.693847C138.879 0.329296 138.129 0.103512 137.357 0.0294042C136.585 -0.0447031 135.806 0.0343187 135.064 0.261946L102.841 10.1418L36.4011 30.5176L4.17813 40.4009C2.68122 40.8613 1.42784 41.8979 0.693099 43.283C-0.0416396 44.6682 -0.197708 46.2888 0.259157 47.7891L46.8409 200.191C47.212 201.402 47.9609 202.462 48.9776 203.216C49.9943 203.969 51.2253 204.376 52.49 204.378C53.0753 204.378 53.6574 204.29 54.2166 204.117L76.3054 197.344L77.0002 197.129V196.401L76.3054 196.614L54.0116 203.452C52.6903 203.855 51.2632 203.717 50.0434 203.068C48.8235 202.419 47.9104 201.312 47.5045 199.989L0.92634 47.5838C0.725217 46.9284 0.65512 46.2398 0.720061 45.5573C0.785002 44.8748 0.983701 44.2118 1.30479 43.6064C1.62588 43.0009 2.06306 42.4648 2.59127 42.0289C3.11948 41.5929 3.72836 41.2655 4.38304 41.0656L36.606 31.1822L103.046 10.81L135.269 0.926643C135.766 0.774843 136.282 0.697443 136.801 0.696958C137.915 0.699464 138.999 1.05929 139.895 1.72372C140.79 2.38816 141.449 3.32229 141.776 4.3893L155.343 48.7809L155.558 49.4769H156.281L156.069 48.7809Z" fill="#3F3D56"/>
<path d="M42.6212 44.4824C41.9516 44.482 41.2998 44.2665 40.7614 43.8678C40.2229 43.469 39.8262 42.9079 39.6295 42.2668L35.1546 27.6256C35.0344 27.2323 34.9927 26.8191 35.0318 26.4097C35.071 26.0002 35.1903 25.6025 35.383 25.2393C35.5756 24.8761 35.8378 24.5544 36.1546 24.2927C36.4714 24.0309 36.8365 23.8343 37.2291 23.7139L98.3534 4.96903C99.1463 4.72665 100.003 4.80931 100.735 5.19887C101.467 5.58843 102.015 6.25305 102.259 7.04686L106.733 21.6882C106.975 22.4825 106.893 23.3405 106.504 24.0738C106.115 24.8072 105.452 25.3561 104.659 25.6001L43.5347 44.345C43.2387 44.436 42.9308 44.4823 42.6212 44.4824Z" fill="#ADA985"/>
<path d="M66.0626 15.6443C69.9001 15.6443 73.0109 12.5282 73.0109 8.68423C73.0109 4.84027 69.9001 1.72412 66.0626 1.72412C62.2251 1.72412 59.1143 4.84027 59.1143 8.68423C59.1143 12.5282 62.2251 15.6443 66.0626 15.6443Z" fill="#ADA985"/>
<path d="M66.063 13.0916C68.493 13.0916 70.4629 11.1183 70.4629 8.68421C70.4629 6.2501 68.493 4.27686 66.063 4.27686C63.633 4.27686 61.6631 6.2501 61.6631 8.68421C61.6631 11.1183 63.633 13.0916 66.063 13.0916Z" fill="white"/>
<path d="M209.366 202.6H91.9394C91.1565 202.599 90.4059 202.287 89.8522 201.732C89.2986 201.178 88.9872 200.426 88.9863 199.641V58.6993C88.9872 57.915 89.2986 57.1631 89.8522 56.6086C90.4058 56.054 91.1564 55.7421 91.9394 55.7412H209.366C210.149 55.7421 210.9 56.0541 211.454 56.6086C212.007 57.1631 212.319 57.915 212.319 58.6993V199.641C212.319 200.426 212.007 201.178 211.453 201.732C210.9 202.287 210.149 202.599 209.366 202.6Z" fill="#E6E6E6"/>
<path d="M155.343 48.7812H82.2118C80.646 48.7835 79.1451 49.4075 78.038 50.5165C76.9308 51.6255 76.3079 53.129 76.3057 54.6973V196.614L77.0005 196.402V54.6973C77.0022 53.3134 77.5518 51.9866 78.5287 51.008C79.5056 50.0295 80.8302 49.4789 82.2118 49.4773H155.559L155.343 48.7812ZM219.094 48.7812H82.2118C80.646 48.7835 79.1451 49.4075 78.038 50.5165C76.9308 51.6255 76.3079 53.129 76.3057 54.6973V214.084C76.3079 215.652 76.9308 217.156 78.038 218.265C79.1451 219.374 80.646 219.998 82.2118 220H219.094C220.66 219.998 222.161 219.374 223.268 218.265C224.375 217.156 224.998 215.652 225 214.084V54.6973C224.998 53.129 224.375 51.6255 223.268 50.5165C222.161 49.4075 220.66 48.7835 219.094 48.7812ZM224.305 214.084C224.304 215.468 223.754 216.795 222.777 217.773C221.8 218.752 220.476 219.302 219.094 219.304H82.2118C80.8302 219.302 79.5056 218.752 78.5287 217.773C77.5518 216.795 77.0022 215.468 77.0005 214.084V54.6973C77.0022 53.3134 77.5518 51.9866 78.5287 51.008C79.5056 50.0295 80.8302 49.4789 82.2118 49.4773H219.094C220.476 49.4789 221.8 50.0295 222.777 51.008C223.754 51.9866 224.304 53.3134 224.305 54.6973V214.084Z" fill="#3F3D56"/>
<path d="M182.615 64.0934H118.69C117.861 64.0925 117.066 63.7622 116.48 63.175C115.894 62.5879 115.564 61.7918 115.563 60.9614V45.6491C115.564 44.8188 115.894 44.0226 116.48 43.4355C117.067 42.8483 117.861 42.518 118.69 42.5171H182.615C183.444 42.518 184.239 42.8483 184.825 43.4355C185.411 44.0226 185.741 44.8188 185.742 45.6491V60.9614C185.741 61.7918 185.411 62.5879 184.825 63.175C184.239 63.7622 183.444 64.0925 182.615 64.0934Z" fill="#ADA985"/>
<path d="M150.652 43.5613C154.49 43.5613 157.601 40.4452 157.601 36.6012C157.601 32.7573 154.49 29.6411 150.652 29.6411C146.815 29.6411 143.704 32.7573 143.704 36.6012C143.704 40.4452 146.815 43.5613 150.652 43.5613Z" fill="#ADA985"/>
<path d="M150.653 40.8405C152.99 40.8405 154.885 38.9425 154.885 36.6012C154.885 34.2598 152.99 32.3618 150.653 32.3618C148.316 32.3618 146.421 34.2598 146.421 36.6012C146.421 38.9425 148.316 40.8405 150.653 40.8405Z" fill="white"/>
</g>
<defs>
<clipPath id="clip0_1435_35040">
<rect width="225" height="220" fill="white"/>
</clipPath>
</defs>
</svg>
