<svg width="115" height="32" viewBox="0 0 115 32" fill="none" xmlns="http://www.w3.org/2000/svg">
<path fill-rule="evenodd" clip-rule="evenodd" d="M44.5282 6.82425C43.5495 6.43252 41.9973 6 40.078 6C35.1782 6 31.7277 8.63619 31.7066 12.4051C31.6659 15.1859 34.177 16.7304 36.0551 17.6575C37.9747 18.605 38.6272 19.2234 38.6272 20.0679C38.6077 21.3649 37.0761 21.9628 35.6475 21.9628C33.6666 21.9628 32.6052 21.6545 30.9922 20.9329L30.3388 20.6236L29.6445 24.9696C30.8082 25.5045 32.9522 25.9792 35.1782 26C40.3843 26 43.7737 23.4046 43.8138 19.3882C43.8336 17.1842 42.5077 15.4955 39.649 14.1155C37.9136 13.2297 36.8509 12.6324 36.8509 11.726C36.8712 10.902 37.7498 10.058 39.7087 10.058C41.3217 10.0167 42.5069 10.4079 43.4047 10.7993L43.8534 11.0049L44.5282 6.82425ZM26.5418 25.7111H21.5801L24.6835 6.35059H29.6449L26.5418 25.7111ZM57.2464 6.35156H53.4086C52.225 6.35156 51.3259 6.70141 50.8153 7.95791L43.4453 25.7118H48.6515C48.6515 25.7118 49.5086 23.3223 49.6928 22.8076H56.0632C56.2056 23.4873 56.6552 25.7118 56.6552 25.7118H61.2492L57.2464 6.35156ZM51.1221 18.8535C51.5307 17.7412 53.103 13.4366 53.103 13.4366C53.0947 13.4532 53.1592 13.2727 53.2552 13.0041L53.256 13.002L53.2562 13.0015C53.3986 12.6032 53.6098 12.0126 53.7558 11.583L54.1026 13.2512C54.1026 13.2512 55.0421 17.8855 55.2462 18.8535H51.1221ZM17.4355 6.35059L12.5764 19.5526L12.0455 16.8754C12.0455 16.8756 12.0456 16.8757 12.0456 16.8759L10.3103 7.97802C10.0246 6.7415 9.14656 6.39137 8.06452 6.35059H0.0816681L0 6.74177C1.94687 7.24407 3.68817 7.96787 5.21393 8.86782L9.63632 25.6906H14.8832L22.6821 6.35059H17.4355Z" fill="white"/>
<path d="M80.7026 31.8406V29.7226C80.7026 28.9106 80.2102 28.3812 79.3664 28.3812C78.9445 28.3812 78.4874 28.5224 78.171 28.9813C77.925 28.593 77.5734 28.3812 77.046 28.3812C76.6943 28.3812 76.343 28.487 76.0616 28.8753V28.4518H75.3232V31.8406H76.0616V29.9696C76.0616 29.3696 76.378 29.0871 76.8704 29.0871C77.3624 29.0871 77.6087 29.4049 77.6087 29.9696V31.8406H78.347V29.9696C78.347 29.3696 78.6984 29.0871 79.1555 29.0871C79.6478 29.0871 79.8938 29.4049 79.8938 29.9696V31.8406H80.7026ZM91.6366 28.4518H90.4414V27.4281H89.703V28.4518H89.035V29.1223H89.7029V30.6757C89.7029 31.4524 90.0193 31.9112 90.8632 31.9112C91.1797 31.9112 91.5311 31.8053 91.7774 31.6642L91.5663 31.0287C91.3554 31.1698 91.1094 31.2052 90.9335 31.2052C90.582 31.2052 90.4414 30.9934 90.4414 30.6403V29.1223H91.6366V28.4518ZM97.8949 28.381C97.473 28.381 97.1918 28.593 97.0159 28.8753V28.4518H96.2776V31.8406H97.0159V29.9344C97.0159 29.3696 97.2619 29.0519 97.719 29.0519C97.8596 29.0519 98.0355 29.0873 98.1761 29.1225L98.387 28.4166C98.2464 28.3812 98.0355 28.3812 97.8949 28.3812V28.381ZM88.4373 28.7341C88.0856 28.487 87.5935 28.3812 87.0661 28.3812C86.2224 28.3812 85.6599 28.8047 85.6599 29.4755C85.6599 30.0404 86.0817 30.3579 86.8201 30.4639L87.1716 30.4993C87.5584 30.5697 87.7693 30.6757 87.7693 30.8523C87.7693 31.0993 87.4881 31.2758 86.9958 31.2758C86.5036 31.2758 86.1168 31.0993 85.8707 30.9229L85.5191 31.4876C85.9059 31.77 86.4333 31.9112 86.9605 31.9112C87.945 31.9112 88.5076 31.4524 88.5076 30.8169C88.5076 30.2168 88.0505 29.899 87.3473 29.7932L86.9958 29.7578C86.6793 29.7225 86.4333 29.652 86.4333 29.4402C86.4333 29.1931 86.6793 29.0519 87.0661 29.0519C87.4881 29.0519 87.9099 29.2283 88.1208 29.3343L88.4373 28.7341ZM108.056 28.3812C107.634 28.3812 107.352 28.593 107.177 28.8753V28.4518H106.438V31.8406H107.177V29.9344C107.177 29.3696 107.423 29.0519 107.88 29.0519C108.02 29.0519 108.196 29.0873 108.337 29.1225L108.548 28.4166C108.407 28.3812 108.196 28.3812 108.056 28.3812ZM98.6332 30.1462C98.6332 31.1698 99.3363 31.9112 100.426 31.9112C100.918 31.9112 101.27 31.8053 101.622 31.523L101.27 30.9229C100.989 31.1346 100.708 31.2404 100.391 31.2404C99.7934 31.2404 99.3715 30.8169 99.3715 30.1462C99.3715 29.5108 99.7934 29.0871 100.391 29.0519C100.708 29.0519 100.989 29.1577 101.27 29.3696L101.622 28.7695C101.27 28.487 100.918 28.3812 100.426 28.3812C99.3363 28.3812 98.6332 29.1225 98.6332 30.1462ZM105.454 30.1462V28.4518H104.716V28.8753C104.469 28.5577 104.118 28.3812 103.661 28.3812C102.712 28.3812 101.973 29.1225 101.973 30.1462C101.973 31.1698 102.712 31.9112 103.661 31.9112C104.153 31.9112 104.505 31.7348 104.716 31.417V31.8406H105.454V30.1462ZM102.747 30.1462C102.747 29.546 103.133 29.0519 103.766 29.0519C104.364 29.0519 104.786 29.5108 104.786 30.1462C104.786 30.7463 104.364 31.2404 103.766 31.2404C103.133 31.2051 102.747 30.7463 102.747 30.1462ZM93.922 28.3812C92.9375 28.3812 92.2343 29.0871 92.2343 30.1462C92.2343 31.2052 92.9374 31.9112 93.9571 31.9112C94.4493 31.9112 94.9416 31.77 95.3284 31.4524L94.9767 30.9229C94.6954 31.1346 94.3439 31.2758 93.9923 31.2758C93.5353 31.2758 93.0782 31.064 92.9726 30.4638H95.469V30.1815C95.5042 29.0871 94.8713 28.3812 93.9219 28.3812H93.922ZM93.922 29.0165C94.379 29.0165 94.6956 29.2991 94.7657 29.8286H93.0079C93.0782 29.3696 93.3946 29.0165 93.922 29.0165ZM112.239 30.1462V27.1104H111.501V28.8753C111.255 28.5577 110.903 28.3812 110.446 28.3812C109.497 28.3812 108.759 29.1225 108.759 30.1462C108.759 31.1698 109.497 31.9112 110.446 31.9112C110.939 31.9112 111.29 31.7348 111.501 31.417V31.8406H112.239V30.1462ZM109.532 30.1462C109.532 29.546 109.919 29.0519 110.552 29.0519C111.15 29.0519 111.571 29.5108 111.571 30.1462C111.571 30.7463 111.15 31.2404 110.552 31.2404C109.919 31.2051 109.532 30.7463 109.532 30.1462ZM84.8511 30.1462V28.4518H84.1128V28.8753C83.8666 28.5577 83.5151 28.3812 83.058 28.3812C82.1087 28.3812 81.3704 29.1225 81.3704 30.1462C81.3704 31.1698 82.1087 31.9112 83.058 31.9112C83.5503 31.9112 83.9019 31.7348 84.1128 31.417V31.8406H84.8511V30.1462ZM82.1087 30.1462C82.1087 29.546 82.4955 29.0519 83.1283 29.0519C83.726 29.0519 84.148 29.5108 84.148 30.1462C84.148 30.7463 83.726 31.2404 83.1283 31.2404C82.4955 31.2051 82.1087 30.7463 82.1087 30.1462Z" fill="white"/>
<path d="M88.1914 2.71777H99.2662V22.6978H88.1914V2.71777Z" fill="#FF5F00"/>
<path d="M88.8945 12.7082C88.8945 8.64868 90.793 5.04796 93.7111 2.71807C91.5666 1.02368 88.8595 0 85.9062 0C78.9094 0 73.249 5.6833 73.249 12.7082C73.249 19.7329 78.9094 25.4164 85.906 25.4164C88.8593 25.4164 91.5664 24.3927 93.7111 22.6981C90.793 20.4036 88.8945 16.7677 88.8945 12.7082Z" fill="#EB001B"/>
<path d="M114.208 12.7082C114.208 19.7329 108.548 25.4164 101.551 25.4164C98.5979 25.4164 95.8907 24.3927 93.7461 22.6981C96.6994 20.3684 98.5628 16.7677 98.5628 12.7082C98.5628 8.64868 96.6641 5.04796 93.7461 2.71807C95.8906 1.02368 98.5979 0 101.551 0C108.548 0 114.208 5.71867 114.208 12.7082H114.208Z" fill="#F79E1B"/>
</svg>
