<svg width="17" height="17" viewBox="0 0 17 17" fill="none" xmlns="http://www.w3.org/2000/svg">
<path fill-rule="evenodd" clip-rule="evenodd" d="M8.49983 0C3.80561 0 0 3.80561 0 8.49983C0 13.1941 3.80561 16.9997 8.49983 16.9997C13.1941 16.9997 16.9997 13.1941 16.9997 8.49983C16.9997 3.80561 13.1941 0 8.49983 0ZM12.1841 7.06259C12.252 6.98504 12.3036 6.89471 12.336 6.79691C12.3684 6.6991 12.381 6.59581 12.3729 6.49309C12.3648 6.39037 12.3362 6.29031 12.2889 6.1988C12.2415 6.10728 12.1764 6.02615 12.0972 5.96019C12.0181 5.89423 11.9265 5.84477 11.828 5.81471C11.7294 5.78465 11.6259 5.7746 11.5234 5.78516C11.4209 5.79572 11.3215 5.82667 11.2312 5.87619C11.1408 5.92571 11.0613 5.9928 10.9972 6.07352L7.67458 10.0599L5.95529 8.33988C5.80956 8.19913 5.61437 8.12124 5.41177 8.123C5.20916 8.12476 5.01536 8.20603 4.87209 8.3493C4.72882 8.49256 4.64756 8.68637 4.6458 8.88897C4.64404 9.09157 4.72192 9.28676 4.86268 9.4325L7.18081 11.7506C7.25674 11.8265 7.34764 11.8857 7.44772 11.9245C7.5478 11.9633 7.65487 11.9809 7.7621 11.976C7.86933 11.9711 7.97437 11.944 8.07052 11.8963C8.16668 11.8485 8.25183 11.7813 8.32056 11.6989L12.1841 7.06259Z" fill="#404040"/>
</svg>
