<svg width="260" height="192" viewBox="0 0 260 192" fill="none" xmlns="http://www.w3.org/2000/svg">
<g clip-path="url(#clip0_1434_31370)">
<path opacity="0.1" d="M2.79883 91.9487C6.90439 107.816 15.5882 121.531 29.3113 128.18C57.8398 141.998 122.179 134.872 170.198 126.691C195.037 122.46 216.869 110.784 232.729 94.3525L2.79883 91.9487Z" fill="#ADA985"/>
<path opacity="0.1" d="M254.606 17.2613H228.259C227.008 17.2613 225.983 16.3348 225.983 15.2026C225.983 14.0704 227.008 13.1415 228.259 13.1415H232.816C231.563 13.1415 230.54 12.215 230.54 11.0805C230.54 9.94596 231.563 9.0218 232.816 9.0218H229.564C228.311 9.0218 227.285 8.09527 227.285 6.96074C227.285 5.82622 228.311 4.90205 229.564 4.90205H243.315C240.264 3.61862 236.697 2.70628 232.587 2.22647C195.088 -2.12964 181.701 0.751585 176.978 3.71317C171.092 7.45059 164.553 10.0439 157.706 11.357C134.571 15.6753 91.3051 20.8705 52.0908 9.70251C32.6006 4.14098 18.1141 13.5268 9.43262 29.2163H259.182C258.856 24.657 257.879 20.445 256.088 16.7602C255.663 17.0878 255.142 17.2642 254.606 17.2613Z" fill="#ADA985"/>
<path opacity="0.1" d="M0.565054 58.8301C-0.446928 68.0579 -0.102926 77.3842 1.58613 86.5125L232.906 94.1682C239.274 87.564 244.684 80.0996 248.979 71.9929L0.565054 58.8301ZM92.055 78.5779H87.5004C88.7531 78.5779 89.7789 79.5068 89.7789 80.639C89.7789 81.7711 88.7531 82.6976 87.5004 82.6976H61.1534C59.9031 82.6976 58.8773 81.7711 58.8773 80.639C58.8773 79.5068 59.9031 78.5779 61.1534 78.5779H65.7104C64.4577 78.5779 63.4343 77.6514 63.4343 76.5192C63.4343 75.387 64.4577 74.4582 65.7104 74.4582H62.4557C61.203 74.4582 60.1772 73.5316 60.1772 72.3995C60.1772 71.2673 61.203 70.3384 62.4557 70.3384H88.8027C90.0554 70.3384 91.0789 71.2649 91.0789 72.3995C91.0789 73.534 90.0554 74.4582 88.8027 74.4582H92.055C93.3077 74.4582 94.3312 75.3847 94.3312 76.5192C94.3312 77.6537 93.3077 78.5779 92.055 78.5779Z" fill="#ADA985"/>
<path opacity="0.1" d="M259.191 29.3584L6.64609 34.9128C3.57342 42.058 1.536 50.1367 0.597656 58.5086H254.767C256.421 53.6106 257.648 48.5786 258.435 43.4691C259.194 38.5504 259.496 33.7925 259.191 29.3584ZM51.8734 47.5699H47.3188C48.5715 47.5699 49.5973 48.4988 49.5973 49.6309C49.5973 50.7631 48.5715 51.692 47.3188 51.692H20.9718C19.7215 51.692 18.6957 50.7631 18.6957 49.6309C18.6957 48.4988 19.7215 47.5699 20.9718 47.5699H25.5288C24.2761 47.5699 23.2527 46.6434 23.2527 45.5112C23.2527 44.379 24.2761 43.4501 25.5288 43.4501H22.2742C21.0215 43.4501 19.9957 42.5236 19.9957 41.3915C19.9957 40.2593 21.0215 39.3304 22.2742 39.3304H48.6211C49.8739 39.3304 50.8973 40.2569 50.8973 41.3915C50.8973 42.526 49.8739 43.4501 48.6211 43.4501H51.8734C53.1262 43.4501 54.1496 44.379 54.1496 45.5112C54.1496 46.6434 53.1262 47.5699 51.8734 47.5699Z" fill="#ADA985"/>
<path opacity="0.1" d="M128.834 184.615C187.182 184.615 234.482 180.264 234.482 174.896C234.482 169.529 187.182 165.177 128.834 165.177C70.4867 165.177 23.1865 169.529 23.1865 174.896C23.1865 180.264 70.4867 184.615 128.834 184.615Z" fill="#ADA985"/>
<path d="M236.511 94.6193C236.51 94.6028 236.51 94.5862 236.511 94.5697C236.511 94.5437 236.511 94.52 236.511 94.4964C236.463 94.2257 236.361 93.9675 236.21 93.7377C235.67 92.8719 234.916 92.1591 234.022 91.6672C232.462 90.8115 230.318 90.4452 229.694 88.8119C229.503 88.3061 229.498 87.7554 229.403 87.226C229.238 86.4011 228.858 85.6342 228.303 85.0023C227.747 84.3705 227.035 83.8959 226.238 83.6262C225.496 83.378 224.695 83.3095 223.974 83.0022C222.362 82.3168 221.511 80.6268 220.79 79.0645C219.858 77.0475 218.925 75.0298 217.992 73.0113C217.283 73.3682 216.366 73.2004 215.702 72.7537C215.062 72.2772 214.552 71.6473 214.22 70.9219C213.258 69.0547 212.844 66.9392 211.714 65.1618C210.584 63.3844 208.327 61.9804 206.332 62.7533C205.943 62.9479 205.54 63.1146 205.127 63.252C203.418 63.6515 201.527 61.6992 200.064 62.647C199.821 62.8028 199.623 63.0196 199.49 63.2757C199.488 63.2599 199.488 63.2441 199.49 63.2284C199.299 63.6129 199.193 64.0335 199.178 64.4622C199.178 64.5497 199.178 64.6347 199.178 64.7175C199.178 64.7317 199.178 64.7458 199.178 64.76C199.178 65.1004 199.199 65.4455 199.204 65.7905C199.209 66.0803 199.187 66.37 199.138 66.6556V66.632C199.11 66.7927 199.069 66.9508 199.015 67.1047C198.634 68.1258 197.58 68.7947 197.086 69.7543V69.707C197.03 69.8114 196.982 69.9196 196.942 70.0308C196.854 70.2824 196.808 70.5467 196.807 70.8132C196.764 72.6166 198.677 74.3137 198.899 76.2494C199.057 77.6203 199.372 78.0599 200.537 78.8352L200.792 79.0054C200.69 79.0054 200.586 79.0196 200.471 79.0219C200.425 79.0228 200.38 79.0275 200.336 79.0361C200.13 78.9795 199.915 78.9692 199.705 79.006C199.494 79.0428 199.295 79.1257 199.121 79.2488C198.228 79.9579 196.115 79.4119 195.176 79.2488C194.238 79.0857 191.023 79.5254 190.574 81.3075C190.125 83.0897 189.355 86.7674 189.355 86.7674C189.355 86.7674 189.355 89.1003 189.069 89.5352C189.058 89.5658 189.058 89.5992 189.069 89.6297C189.069 90.2845 189.092 94.2198 188.459 95.2338C188.303 95.4702 188.315 95.9925 188.43 96.6354C187.764 97.4934 187.138 98.4956 187.249 99.1527C187.452 100.498 190.18 104.726 194.089 102.462C194.089 102.462 196.313 98.3939 193.515 96.2313L193.635 95.7585C194.481 96.7985 195.108 97.5454 195.108 97.5454C195.108 97.5454 195.141 97.6329 195.193 97.7818H195.108C195.473 98.7757 195.694 99.8168 195.765 100.873C195.754 101.261 195.684 101.644 195.557 102.01H195.63C195.609 102.091 195.585 102.171 195.557 102.247C195.419 102.646 195.163 102.993 194.822 103.242C192.867 104.627 190.629 114.518 190.629 114.518C190.629 114.518 186.195 130.508 185.308 131.418C184.575 132.165 189.18 134.269 192.635 134.018C193.118 133.989 193.594 133.899 194.053 133.749C194.075 133.985 194.098 134.221 194.122 134.436C194.195 135.145 194.271 135.803 194.318 136.008C194.441 136.523 194.685 141.785 194.685 141.785C194.685 141.785 194.186 145.203 194.306 147.58C194.306 147.743 194.328 147.899 194.342 148.053L193.912 148.119C193.259 149.585 195.947 161.812 196.313 162.84C196.556 163.65 196.692 164.488 196.72 165.333C196.72 165.333 196.483 166.203 196.679 166.678C196.802 166.969 196.881 167.275 196.916 167.588C196.916 167.588 196.755 168.378 196.998 168.893C197.242 169.408 196.958 170.311 196.958 170.311C196.958 170.311 196.878 173.873 196.145 175.811C195.946 176.333 195.888 176.898 195.977 177.449C196.066 178 196.3 178.518 196.653 178.95C196.704 179.017 196.76 179.081 196.819 179.141C196.819 179.141 200.861 179.174 201.572 179.141H201.664C201.95 179.101 202.683 175.896 202.031 174.353C201.378 172.809 201.95 170.909 201.95 170.909V168.101C201.95 168.101 202.683 167.425 201.95 165.974C201.217 164.523 201.338 164.083 201.338 164.083C201.338 164.083 202.153 161.748 201.298 160.996C200.442 160.244 201.461 157.394 201.461 157.394L201.749 147.892C201.598 147.843 201.444 147.804 201.288 147.774C201.272 147.618 201.255 147.457 201.239 147.287C201.071 145.567 200.927 143.227 201.3 142.56C201.674 141.894 201.853 136.074 201.912 132.03L205.637 132.172C205.715 134.063 205.798 135.788 205.85 136.008C205.973 136.523 206.219 141.785 206.219 141.785C206.219 141.785 205.718 145.203 205.838 147.58C205.838 147.743 205.86 147.899 205.874 148.053L205.444 148.119C204.791 149.585 207.479 161.812 207.845 162.84C208.088 163.65 208.225 164.488 208.254 165.333C208.254 165.333 208.018 166.203 208.211 166.678C208.334 166.969 208.413 167.275 208.448 167.588C208.448 167.588 208.287 168.378 208.53 168.893C208.774 169.408 208.49 170.311 208.49 170.311C208.49 170.311 208.41 173.873 207.677 175.811C207.481 176.333 207.426 176.898 207.518 177.449C207.61 177.999 207.846 178.515 208.202 178.945C208.253 179.013 208.308 179.077 208.367 179.137C208.367 179.137 212.409 179.17 213.121 179.137H213.213C213.499 179.096 214.231 175.891 213.579 174.348C212.927 172.805 213.499 170.904 213.499 170.904V168.101C213.499 168.101 214.231 167.425 213.499 165.974C212.766 164.523 212.887 164.083 212.887 164.083C212.887 164.083 213.702 161.748 212.846 160.996C211.991 160.244 213.009 157.394 213.009 157.394L213.303 147.892C213.148 147.842 212.99 147.803 212.83 147.774C212.813 147.618 212.797 147.457 212.78 147.287C212.612 145.567 212.468 143.227 212.842 142.56C213.142 142.014 213.314 138.497 213.392 135.063C213.392 134.826 213.392 134.59 213.411 134.354C215.123 134.282 216.827 134.091 218.512 133.782C218.512 133.782 216.519 126.736 217.129 125.589C217.392 125.095 217.013 122.465 216.496 119.631C217.218 120.215 218.115 120.54 219.044 120.553C219.935 122.266 222.646 126.209 224.173 126.816C225.964 127.525 224.619 121.238 223.766 120.328C223.362 119.831 223.023 119.286 222.755 118.704C222.778 118.676 222.804 118.652 222.828 118.626C222.851 118.6 222.87 111.937 222.461 112.058C222.053 112.178 221.566 111.068 221.566 111.068L220.304 99.9894L219.774 95.352C220.216 95.6782 220.741 95.8862 221.192 96.21C222.421 97.1105 222.823 98.6918 223.362 100.091C223.806 101.242 224.43 102.384 225.454 103.107C226.477 103.83 227.978 104.022 228.999 103.289C229.945 102.601 230.224 101.36 230.432 100.228C232.147 100.831 234.23 99.2188 234.008 97.458C233.953 97.0231 233.793 96.548 234.019 96.1674C234.473 95.4158 235.91 95.8531 236.383 95.1109C236.463 94.9825 236.504 94.8341 236.501 94.6831C236.508 94.65 236.511 94.6358 236.511 94.6193ZM213.558 100.713C213.532 101.136 214.113 104.535 214.586 107.224C214.198 105.549 213.421 103.759 211.889 102.533C211.889 102.533 211.889 102.448 211.87 102.296H211.889C211.889 102.296 211.825 101.62 211.816 100.658C211.819 99.8055 211.882 98.9541 212.005 98.1103V98.089H211.974C211.974 98.0181 211.993 97.9449 212.005 97.874C212.099 97.1619 212.292 96.4665 212.579 95.8082C212.706 95.5502 212.852 95.3021 213.017 95.066C213.269 97.3516 213.581 100.285 213.558 100.713ZM214.829 108.588C215.037 109.749 215.186 110.564 215.186 110.564L216.441 119.182V119.222C215.765 115.584 214.903 111.751 214.903 111.751C214.991 110.697 214.966 109.637 214.829 108.588Z" fill="url(#paint0_linear_1434_31370)"/>
<path d="M199.447 76.7224C199.211 74.5384 196.847 72.6547 197.556 70.5771C197.941 69.4449 199.147 68.7524 199.553 67.6273C199.823 66.8851 199.702 66.0697 199.705 65.2802C199.707 64.4908 199.891 63.6092 200.548 63.1719C201.966 62.2265 203.791 64.1717 205.446 63.7746C205.846 63.6378 206.235 63.4719 206.611 63.2783C208.542 62.5101 210.726 63.9094 211.811 65.6773C212.896 67.4453 213.302 69.5536 214.234 71.4114C214.551 72.1288 215.044 72.7553 215.666 73.2337C216.309 73.6781 217.188 73.8459 217.883 73.4914L220.589 79.5185C221.298 81.0714 222.111 82.7543 223.662 83.4374C224.357 83.7423 225.132 83.8108 225.851 84.059C226.632 84.3344 227.326 84.8102 227.866 85.4386C228.405 86.0671 228.77 86.8261 228.923 87.6398C229.015 88.1693 229.018 88.7176 229.205 89.2211C229.807 90.8472 231.88 91.2112 233.39 92.0574C234.264 92.5501 234.997 93.259 235.518 94.1161C235.754 94.525 235.957 95.0615 235.704 95.4633C235.248 96.2008 233.861 95.7659 233.421 96.5151C233.199 96.8933 233.355 97.366 233.421 97.8009C233.636 99.5523 231.62 101.157 229.961 100.557C229.76 101.684 229.488 102.92 228.576 103.604C227.595 104.336 226.141 104.142 225.151 103.424C224.161 102.705 223.56 101.568 223.13 100.422C222.608 99.0276 222.218 97.4535 221.029 96.5577C220.599 96.2362 220.083 96.0282 219.663 95.7044C218.717 94.9812 218.245 93.7875 217.907 92.6317C217.469 91.19 217.122 89.708 216.488 88.3466C215.855 86.9851 214.853 85.7182 213.48 85.0966C212.191 84.5175 210.707 84.5553 209.376 84.085C207.086 83.2766 205.391 81.3503 203.113 80.4427C202.384 80.1365 201.694 79.7462 201.056 79.2798C199.91 78.5258 199.598 78.0886 199.447 76.7224Z" fill="#3F3D56"/>
<g opacity="0.1">
<path d="M199.659 67.1639C199.708 67.0714 199.751 66.9759 199.787 66.8779C200.054 66.1357 199.936 65.3202 199.938 64.5308C199.938 64.2675 199.962 64.0048 200.011 63.7461C199.793 64.2131 199.687 64.7246 199.702 65.2399C199.699 65.8757 199.775 66.5422 199.659 67.1639Z" fill="black"/>
<path d="M228.798 102.861C227.817 103.591 226.364 103.4 225.373 102.679C224.383 101.958 223.78 100.826 223.362 99.675C222.839 98.2805 222.452 96.7063 221.261 95.8105C220.833 95.4891 220.315 95.2787 219.897 94.9573C218.951 94.234 218.479 93.0404 218.138 91.8964C217.701 90.4546 217.356 88.9727 216.72 87.6112C216.084 86.2498 215.087 84.9829 213.711 84.3613C212.425 83.7822 210.941 83.82 209.61 83.3497C207.318 82.5413 205.623 80.615 203.347 79.7074C202.618 79.4003 201.927 79.0101 201.288 78.5445C200.168 77.7716 199.87 77.3343 199.705 75.9705C199.468 73.9237 197.388 72.1391 197.712 70.2104C197.659 70.3148 197.613 70.4221 197.573 70.5319C196.864 72.6119 199.227 74.4956 199.463 76.6772C199.617 78.041 199.936 78.4783 201.047 79.2512C201.686 79.7168 202.377 80.107 203.106 80.4141C205.382 81.3217 207.077 83.2504 209.369 84.0564C210.7 84.5291 212.184 84.4889 213.47 85.068C214.846 85.6896 215.834 86.9589 216.479 88.3179C217.124 89.677 217.469 91.1542 217.897 92.6031C218.245 93.7471 218.701 94.9407 219.656 95.664C220.083 95.9854 220.601 96.1958 221.019 96.5172C222.201 97.413 222.598 98.9872 223.121 100.382C223.551 101.528 224.154 102.663 225.144 103.381C226.134 104.1 227.588 104.293 228.569 103.563C229.195 103.09 229.514 102.37 229.725 101.597C229.538 102.095 229.217 102.533 228.798 102.861Z" fill="black"/>
<path d="M233.655 95.7727C233.565 95.9422 233.525 96.1343 233.542 96.3258C234.076 95.7987 235.281 96.1083 235.702 95.43C235.8 95.2623 235.838 95.0666 235.811 94.8745C235.262 95.3945 234.057 95.0849 233.655 95.7727Z" fill="black"/>
<path d="M230.183 99.8144C230.138 100.051 230.093 100.304 230.036 100.55C231.483 101.001 233.154 99.8404 233.39 98.375C232.816 99.5024 231.398 100.256 230.183 99.8144Z" fill="black"/>
</g>
<path d="M202.501 77.8592C202.501 77.8592 203.288 79.4476 200.964 79.4807C198.641 79.5138 202.461 89.7954 202.461 89.7954L206.323 94.7117L211.128 92.1117L211.404 84.9406L211.759 80.6081C211.759 80.6081 207.268 79.1498 208.095 77.2211C208.923 75.2924 202.501 77.8592 202.501 77.8592Z" fill="#FBBEBE"/>
<path d="M216.448 119.78C216.448 119.78 219.285 122.571 222.594 118.867L220.053 116.17H216.838L216.448 119.78Z" fill="#575A89"/>
<path opacity="0.1" d="M216.755 116.17L216.365 119.78C216.365 119.78 219.202 122.571 222.511 118.867" fill="black"/>
<path d="M221.528 116.662C221.528 116.662 222.669 119.657 223.497 120.562C224.324 121.467 225.624 127.731 223.891 127.022C222.159 126.313 218.85 121.035 218.651 120.129C218.453 119.224 218.377 116.662 218.377 116.662H221.528Z" fill="#FBBEBE"/>
<path d="M196.75 132.026L212.033 132.617L210.26 126.155L202.562 125.999L196.75 132.026Z" fill="#575A89"/>
<path opacity="0.1" d="M198.875 132.026L214.16 132.617L212.388 126.155L204.687 125.999L198.875 132.026Z" fill="black"/>
<path d="M201.752 142.693C201.39 143.366 201.53 145.697 201.693 147.42C201.797 148.517 201.91 149.36 201.91 149.36C201.91 149.36 196.197 151.133 195.332 149.597C195.112 149.207 195.004 148.524 194.966 147.722C194.848 145.359 195.332 141.953 195.332 141.953C195.332 141.953 195.096 136.715 194.978 136.202C194.93 135.997 194.857 135.344 194.786 134.638C194.682 133.588 194.583 132.42 194.583 132.42L202.383 128.284C202.383 128.284 202.383 129.059 202.369 130.253C202.326 134.002 202.201 141.865 201.752 142.693Z" fill="#FBBEBE"/>
<path opacity="0.1" d="M201.91 149.36C201.91 149.36 196.197 151.133 195.332 149.596C195.112 149.206 195.004 148.523 194.966 147.722C196.148 147.542 199.745 147.046 201.693 147.419C201.797 148.516 201.91 149.36 201.91 149.36Z" fill="black"/>
<path d="M202.106 179.142H202.016C201.328 179.167 197.419 179.142 197.419 179.142C197.362 179.082 197.308 179.019 197.258 178.952C196.913 178.52 196.685 178.005 196.596 177.459C196.507 176.913 196.56 176.352 196.75 175.832C197.459 173.901 197.537 170.356 197.537 170.356C197.537 170.356 197.814 169.451 197.577 168.938C197.341 168.425 197.497 167.638 197.497 167.638C197.461 167.327 197.381 167.022 197.261 166.733C197.064 166.26 197.301 165.392 197.301 165.392C197.274 164.552 197.141 163.718 196.906 162.911C196.552 161.887 193.952 149.715 194.583 148.256C194.583 148.256 200.097 147.311 202.186 148.02L201.91 157.474C201.91 157.474 200.924 160.311 201.751 161.06C202.579 161.809 201.792 164.133 201.792 164.133C201.792 164.133 201.673 164.565 202.383 166.024C203.092 167.482 202.383 168.151 202.383 168.151V170.947C202.383 170.947 201.832 172.838 202.461 174.374C203.089 175.91 202.383 179.092 202.106 179.142Z" fill="#3F3D56"/>
<path d="M212.929 142.693C212.567 143.366 212.706 145.697 212.869 147.42C212.973 148.516 213.087 149.36 213.087 149.36C213.087 149.36 207.374 151.133 206.509 149.597C206.289 149.207 206.18 148.524 206.143 147.722C206.024 145.359 206.509 141.953 206.509 141.953C206.509 141.953 206.273 136.715 206.154 136.202C206.091 135.926 205.98 133.288 205.892 130.922C205.819 128.903 205.76 127.079 205.76 127.079L213.56 128.284C213.56 128.284 213.56 131.714 213.463 135.238C213.378 138.655 213.219 142.158 212.929 142.693Z" fill="#FBBEBE"/>
<path opacity="0.1" d="M213.088 149.36C213.088 149.36 207.375 151.133 206.51 149.596C206.29 149.206 206.181 148.523 206.144 147.722C207.325 147.542 210.923 147.046 212.87 147.419C212.974 148.516 213.088 149.36 213.088 149.36Z" fill="black"/>
<path d="M213.284 179.142H213.194C212.506 179.168 208.597 179.142 208.597 179.142C208.54 179.082 208.486 179.019 208.436 178.953C208.091 178.52 207.863 178.006 207.774 177.459C207.685 176.913 207.738 176.353 207.928 175.833C208.637 173.892 208.708 170.347 208.708 170.347C208.708 170.347 208.985 169.441 208.748 168.929C208.512 168.416 208.668 167.629 208.668 167.629C208.632 167.317 208.552 167.013 208.432 166.723C208.235 166.251 208.472 165.383 208.472 165.383C208.445 164.543 208.312 163.709 208.077 162.901C207.722 161.878 205.123 149.705 205.754 148.247C205.754 148.247 211.268 147.302 213.357 148.011L213.081 157.465C213.081 157.465 212.095 160.301 212.922 161.051C213.75 161.8 212.963 164.123 212.963 164.123C212.963 164.123 212.844 164.556 213.553 166.014C214.263 167.473 213.553 168.141 213.553 168.141V170.938C213.553 170.938 213.003 172.829 213.631 174.365C214.26 175.901 213.561 179.092 213.284 179.142Z" fill="#3F3D56"/>
<path opacity="0.1" d="M205.574 79.7168C208.642 79.7168 211.128 77.23 211.128 74.1624C211.128 71.0947 208.642 68.6079 205.574 68.6079C202.506 68.6079 200.02 71.0947 200.02 74.1624C200.02 77.23 202.506 79.7168 205.574 79.7168Z" fill="black"/>
<path d="M205.574 79.4805C208.642 79.4805 211.128 76.9937 211.128 73.926C211.128 70.8584 208.642 68.3716 205.574 68.3716C202.506 68.3716 200.02 70.8584 200.02 73.926C200.02 76.9937 202.506 79.4805 205.574 79.4805Z" fill="#FBBEBE"/>
<path opacity="0.1" d="M194.583 132.42L202.383 128.284C202.383 128.284 202.383 129.059 202.369 130.253C201.229 130.934 199.511 131.957 197.859 132.924C196.961 133.451 196.084 133.962 195.332 134.389C195.158 134.484 194.975 134.563 194.786 134.626C194.682 133.588 194.583 132.42 194.583 132.42Z" fill="black"/>
<path opacity="0.1" d="M213.56 128.275C213.56 128.275 213.56 131.704 213.463 135.228H213.435C212.852 135.249 212.268 135.231 211.688 135.174C210.669 135.065 209.854 134.796 209.561 134.262C208.967 133.222 207.306 131.898 205.902 130.913C205.829 128.894 205.77 127.069 205.77 127.069L213.56 128.275Z" fill="black"/>
<path d="M212.109 98.2358C211.911 99.7743 211.873 101.329 211.995 102.876C215.578 105.83 214.91 112.053 214.91 112.053C214.91 112.053 217.668 124.661 217.077 125.802C216.486 126.944 218.415 133.957 218.415 133.957C216.771 134.268 215.106 134.459 213.435 134.529C212.852 134.549 212.268 134.531 211.688 134.474C210.669 134.366 209.854 134.096 209.561 133.562C208.459 131.633 203.692 128.757 203.692 128.757C203.692 128.757 200.671 130.567 197.859 132.215C196.96 132.742 196.084 133.252 195.332 133.68C194.722 134.004 194.048 134.189 193.358 134.221C190.014 134.47 185.558 132.376 186.268 131.633C187.135 130.726 191.43 114.812 191.43 114.812C191.43 114.812 193.595 104.963 195.486 103.585C195.817 103.334 196.064 102.989 196.195 102.594C196.842 100.796 195.76 97.912 195.76 97.912C195.76 97.912 189.655 90.3886 189.929 89.9537C190.203 89.5188 190.205 87.1978 190.205 87.1978C190.205 87.1978 190.955 83.5342 191.387 81.7615C191.82 79.9888 194.932 79.5539 195.838 79.7123C196.743 79.8706 198.79 80.4214 199.655 79.7123C200.52 79.0032 201.981 79.9888 201.981 79.9888L205.569 80.9768L208.795 79.0859C208.795 79.0859 212.028 79.2514 212.305 79.6839C212.581 80.1165 216.836 80.9461 216.836 80.9461C219.001 82.4021 218.923 89.3368 218.923 89.3368C218.923 89.3368 213.723 93.8655 212.659 96.1913C212.384 96.8446 212.199 97.5324 212.109 98.2358Z" fill="#575A89"/>
<path d="M217.746 88.377L218.928 89.3224L220.15 100.313L221.37 111.344C221.37 111.344 221.842 112.448 222.237 112.33C222.632 112.211 222.592 118.867 222.592 118.867C222.592 118.867 218.068 116.085 216.446 119.78L215.184 110.871C215.184 110.871 213.567 101.771 213.608 101.062C213.648 100.353 212.78 92.6716 212.78 92.6716L217.746 88.377Z" fill="#575A89"/>
<path d="M190.801 88.8901L189.933 89.9538C189.933 89.9538 190.014 94.5226 189.343 95.6264C188.671 96.7302 191.196 103.19 192.141 102.795C193.086 102.4 195.214 92.3173 195.214 92.1992C195.214 92.081 190.801 88.8901 190.801 88.8901Z" fill="#575A89"/>
<path d="M190.723 95.3901C190.723 95.3901 187.965 98.1863 188.161 99.5264C188.358 100.867 190.998 105.076 194.779 102.814C194.779 102.814 198.287 96.2174 190.723 95.3901Z" fill="#575A89"/>
<path opacity="0.1" d="M202.017 179.149C201.329 179.175 197.42 179.149 197.42 179.149C197.362 179.089 197.309 179.026 197.259 178.96C198.259 178.619 200.419 178.109 202.017 179.149Z" fill="black"/>
<path opacity="0.1" d="M213.198 179.149C212.511 179.175 208.601 179.149 208.601 179.149C208.544 179.089 208.49 179.026 208.44 178.96C209.436 178.619 211.596 178.109 213.198 179.149Z" fill="black"/>
<path opacity="0.1" d="M198.138 109.865C197.535 115.646 197.734 127.119 197.859 132.215C196.961 132.742 196.084 133.253 195.332 133.68C194.722 134.004 194.048 134.189 193.359 134.222C193.108 132.681 196.578 116.852 198.138 109.865Z" fill="black"/>
<path opacity="0.1" d="M198.875 106.584C198.859 106.667 198.573 107.924 198.138 109.865C198.308 108.208 198.544 107.019 198.875 106.584Z" fill="black"/>
<path opacity="0.1" d="M208.472 105.96C208.472 105.96 211.821 126.996 201.903 129.596C201.901 129.586 208.765 128.544 208.472 105.96Z" fill="black"/>
<path opacity="0.1" d="M213.435 134.529C212.852 134.55 212.269 134.531 211.688 134.474L209.013 105.712C210.719 106.828 212.761 127.24 213.435 134.529Z" fill="black"/>
<path opacity="0.1" d="M201.437 70.6595C201.615 70.6454 201.793 70.6639 201.964 70.7139C202.215 70.8389 202.441 71.0087 202.631 71.215C202.939 71.4726 203.307 71.6478 203.702 71.7243C204.096 71.8008 204.503 71.776 204.886 71.6523C205.155 71.5318 205.441 71.4521 205.734 71.4159C206.185 71.4159 206.575 71.7468 206.809 72.125C207.043 72.5032 207.164 72.9522 207.365 73.3564C207.566 73.7606 207.887 74.1435 208.329 74.2428C208.541 74.251 208.75 74.2991 208.944 74.3846C209.063 74.4812 209.154 74.6076 209.209 74.7509C209.577 75.5475 209.87 76.4882 210.657 76.8782C210.947 77.0123 211.262 77.0809 211.582 77.0791C211.906 77.1029 212.231 77.0443 212.527 76.9089C212.818 76.7464 213.058 76.5068 213.222 76.2164C213.714 75.4033 213.77 74.3964 213.654 73.4533C213.51 72.2636 213.087 71.1249 212.418 70.1301C211.714 69.124 210.756 68.3227 209.641 67.8082C208.526 67.2937 207.294 67.0844 206.072 67.2016C205.645 67.2496 205.223 67.3286 204.808 67.438C203.304 67.8398 201.829 68.5914 200.917 69.8512C200.696 70.1657 200.454 70.4642 200.191 70.7446C200.605 70.7045 201.021 70.669 201.437 70.6595Z" fill="black"/>
<path d="M201.437 70.4232C201.615 70.4091 201.793 70.4275 201.964 70.4776C202.215 70.6026 202.441 70.7724 202.631 70.9787C202.939 71.2363 203.307 71.4115 203.702 71.488C204.096 71.5644 204.503 71.5396 204.886 71.4159C205.155 71.2955 205.441 71.2158 205.734 71.1796C206.185 71.1796 206.575 71.5105 206.809 71.8886C207.043 72.2668 207.164 72.7159 207.365 73.1201C207.566 73.5243 207.887 73.9072 208.329 74.0064C208.541 74.0147 208.75 74.0628 208.944 74.1482C209.063 74.2449 209.154 74.3713 209.209 74.5146C209.577 75.3111 209.87 76.2518 210.657 76.6418C210.947 76.776 211.262 76.8446 211.582 76.8427C211.906 76.8666 212.231 76.808 212.527 76.6726C212.818 76.5101 213.058 76.2704 213.222 75.98C213.714 75.167 213.77 74.1601 213.654 73.217C213.51 72.0273 213.087 70.8886 212.418 69.8938C211.714 68.8876 210.756 68.0864 209.641 67.5719C208.526 67.0574 207.294 66.8481 206.072 66.9653C205.645 67.0133 205.223 67.0923 204.808 67.2016C203.304 67.6035 201.829 68.3551 200.917 69.6149C200.696 69.9293 200.454 70.2279 200.191 70.5083C200.605 70.4681 201.021 70.4327 201.437 70.4232Z" fill="#3F3D56"/>
<path opacity="0.1" d="M195.41 83.6499C195.41 83.6499 195.687 85.8575 194.741 86.4082C193.796 86.9589 195.41 83.6499 195.41 83.6499Z" fill="black"/>
<path opacity="0.1" d="M215.461 100.748C215.461 100.748 217.706 97.4393 218.023 98.3847C218.34 99.3302 215.461 100.748 215.461 100.748Z" fill="black"/>
<path opacity="0.1" d="M215.619 101.85C215.619 101.85 217.834 99.1315 218.047 100.195C218.259 101.259 215.619 101.85 215.619 101.85Z" fill="black"/>
<path opacity="0.1" d="M209.114 98.6138C208.311 98.6252 207.527 98.3672 206.888 97.8811H206.694C206.031 98.487 205.16 98.8145 204.262 98.7958C203.795 98.8066 203.331 98.7226 202.897 98.5487C202.464 98.3748 202.07 98.1147 201.74 97.7842H201.482C200.802 98.3384 199.947 98.6337 199.069 98.6177C198.192 98.6017 197.349 98.2754 196.689 97.6967L195.765 97.6802C195.765 97.6802 196.847 100.564 196.2 102.362L211.995 102.644C211.873 101.097 211.911 99.5425 212.109 98.004V97.9827L211.241 97.9662C210.617 98.3989 209.874 98.6254 209.114 98.6138Z" fill="black"/>
<path opacity="0.1" d="M209.114 99.0865C208.311 99.0978 207.527 98.8399 206.888 98.3537H206.694C206.031 98.9596 205.16 99.2871 204.262 99.2684C203.795 99.2793 203.331 99.1952 202.897 99.0213C202.464 98.8474 202.07 98.5873 201.74 98.2568H201.482C200.802 98.8111 199.947 99.1064 199.069 99.0903C198.192 99.0743 197.349 98.7481 196.689 98.1694L195.765 98.1528C195.765 98.1528 196.847 101.036 196.2 102.835L211.995 103.116C211.873 101.57 211.911 100.015 212.109 98.4766V98.4554L211.241 98.4388C210.617 98.8716 209.874 99.0981 209.114 99.0865Z" fill="black"/>
<path d="M209.114 98.8501C208.311 98.8615 207.527 98.6035 206.888 98.1174H206.694C206.031 98.7233 205.16 99.0508 204.262 99.0321C203.795 99.043 203.331 98.9589 202.897 98.785C202.464 98.6111 202.07 98.351 201.74 98.0205H201.482C200.802 98.5747 199.947 98.87 199.069 98.854C198.192 98.838 197.349 98.5117 196.689 97.9331L195.765 97.9165C195.765 97.9165 196.847 100.8 196.2 102.599L211.995 102.88C211.873 101.334 211.911 99.7788 212.109 98.2403V98.219L211.241 98.2025C210.617 98.6353 209.874 98.8617 209.114 98.8501Z" fill="#3F3D56"/>
<path opacity="0.1" d="M208.412 83.0898C208.412 83.0898 211.738 83.3026 211.759 83.7753C211.78 84.248 208.412 83.0898 208.412 83.0898Z" fill="black"/>
<path opacity="0.1" d="M200.333 81.0737C200.333 81.0737 197.008 81.2865 196.986 81.7592C196.965 82.2319 200.333 81.0737 200.333 81.0737Z" fill="black"/>
<path opacity="0.1" d="M213.043 90.7381C213.01 90.7145 212.976 90.6956 212.943 90.6743C213.794 91.4401 213.652 93.1135 212.608 94.4939C211.563 95.8742 209.977 96.4486 209.013 95.8293C209.043 95.8553 209.069 95.8837 209.103 95.9097C210.048 96.6329 211.702 96.0657 212.794 94.6381C213.886 93.2104 213.993 91.4638 213.043 90.7381Z" fill="black"/>
<path opacity="0.1" d="M194.775 94.3168C193.933 92.7994 194.042 91.1236 194.994 90.4878C194.959 90.5043 194.921 90.5185 194.886 90.5374C193.841 91.1189 193.704 92.8608 194.569 94.4303C195.434 95.9997 196.994 96.7939 198.039 96.2219C198.073 96.202 198.106 96.1799 198.138 96.1557C197.096 96.6284 195.616 95.8342 194.775 94.3168Z" fill="black"/>
<path opacity="0.1" d="M195.899 81.5203L195.594 81.993L194.816 81.5794L195.225 80.9507C195.496 81.0785 195.728 81.2749 195.899 81.5203Z" fill="black"/>
<path d="M190.959 99.0131C190.959 99.0131 191.652 95.756 190.723 94.7208C189.794 93.6855 190.092 88.2587 191.51 88.3769C192.928 88.4951 195.055 92.7874 194.701 93.695C194.346 94.6026 193.006 99.2494 193.006 99.2494L190.959 99.0131Z" fill="#FBBEBE"/>
<path opacity="0.1" d="M213.199 75.5144C213.035 75.8048 212.795 76.0444 212.504 76.2069C212.208 76.3424 211.883 76.4009 211.559 76.3771C211.24 76.379 210.924 76.3104 210.634 76.1762C209.847 75.7838 209.554 74.8431 209.186 74.0489C209.139 73.9057 209.056 73.777 208.945 73.6755C208.753 73.5885 208.547 73.5379 208.337 73.5266C207.895 73.4273 207.576 73.0421 207.373 72.6402C207.169 72.2384 207.049 71.7941 206.817 71.4088C206.586 71.0236 206.193 70.6856 205.742 70.6997C205.448 70.7387 205.162 70.8224 204.893 70.9479C204.511 71.0706 204.104 71.0947 203.709 71.0178C203.315 70.941 202.947 70.7657 202.638 70.5083C202.449 70.302 202.223 70.1322 201.972 70.0072C201.801 69.9572 201.622 69.9387 201.445 69.9528C201.173 69.9528 200.904 69.9788 200.632 70.0001C200.497 70.1767 200.353 70.3455 200.199 70.5059C200.613 70.4705 201.029 70.435 201.445 70.4256C201.622 70.4114 201.801 70.4299 201.972 70.4799C202.223 70.6049 202.449 70.7748 202.638 70.981C202.947 71.2384 203.315 71.4137 203.709 71.4905C204.104 71.5674 204.511 71.5434 204.893 71.4206C205.162 71.2951 205.448 71.2114 205.742 71.1725C206.193 71.1725 206.583 71.5034 206.817 71.8815C207.051 72.2597 207.172 72.7088 207.373 73.113C207.574 73.5171 207.895 73.9 208.337 73.9993C208.547 74.0107 208.753 74.0612 208.945 74.1482C209.063 74.2449 209.155 74.3713 209.209 74.5146C209.578 75.3111 209.871 76.2518 210.658 76.6418C210.948 76.776 211.263 76.8446 211.582 76.8427C211.907 76.8665 212.232 76.808 212.528 76.6725C212.819 76.51 213.059 76.2704 213.223 75.98C213.59 75.3119 213.754 74.5513 213.695 73.7913C213.677 74.3983 213.507 74.9909 213.199 75.5144Z" fill="black"/>
<path d="M192.006 101.596C193.181 101.596 194.133 100.951 194.133 100.155C194.133 99.3584 193.181 98.7129 192.006 98.7129C190.831 98.7129 189.879 99.3584 189.879 100.155C189.879 100.951 190.831 101.596 192.006 101.596Z" fill="#575A89"/>
<path d="M122.668 180.411C162.939 180.411 195.585 147.765 195.585 107.494C195.585 67.2231 162.939 34.5771 122.668 34.5771C82.397 34.5771 49.751 67.2231 49.751 107.494C49.751 147.765 82.397 180.411 122.668 180.411Z" fill="#35383F"/>
<path d="M160.927 144.136C160.927 155.647 142.832 145.12 123.431 145.12C104.031 145.12 84.4082 155.212 84.4082 143.702C84.4082 137.138 90.6623 128.01 99.6345 121.38C106.394 116.383 114.695 112.805 123.034 112.805C131.609 112.805 140.009 116.679 146.71 121.997C155.167 128.702 160.927 137.712 160.927 144.136Z" fill="#9E9E9E"/>
<path d="M146.708 121.992C136.396 120.439 117.745 118.546 99.6348 121.375C106.395 116.379 114.696 112.8 123.034 112.8C131.607 112.8 140.007 116.674 146.708 121.992Z" fill="#F6F8FB"/>
<path opacity="0.05" d="M84.4084 56.022C84.4084 56.022 62.4435 70.0641 62.6232 92.0289C62.8028 113.994 84.4084 56.022 84.4084 56.022Z" fill="black"/>
<path d="M195.556 16.3632C195.556 16.3632 175.655 15.1648 178.002 29.11C178.002 29.11 177.529 31.5729 179.77 32.6932C179.77 32.6932 179.805 31.6604 181.81 32.0102C182.524 32.1297 183.25 32.1646 183.972 32.1142C184.949 32.0478 185.877 31.6643 186.615 31.0222C186.615 31.0222 192.21 28.713 194.386 19.5682C194.386 19.5682 195.996 17.5733 195.932 17.0628L192.574 18.4951C192.574 18.4951 193.72 20.9178 192.81 22.9316C192.81 22.9316 192.701 18.585 192.056 18.6771C191.926 18.6984 190.312 19.5162 190.312 19.5162C190.312 19.5162 192.285 23.7376 190.784 26.8032C190.784 26.8032 191.349 21.6033 189.683 19.8211L187.319 21.2015C187.319 21.2015 189.626 25.5599 188.061 29.1171C188.061 29.1171 188.463 23.662 186.823 21.5371L184.679 23.2081C184.679 23.2081 186.847 27.5052 185.525 30.4549C185.525 30.4549 185.353 24.1039 184.216 23.6241C184.216 23.6241 182.342 25.2787 182.056 25.957C182.056 25.957 183.54 29.0746 182.62 30.7196C182.62 30.7196 182.056 26.4888 181.592 26.4652C181.592 26.4652 179.725 29.2684 179.529 31.1924C179.529 31.1924 179.612 28.3324 181.138 26.1981C181.138 26.1981 179.333 26.5077 178.281 27.6801C178.281 27.6801 178.572 25.697 181.59 25.5245C181.59 25.5245 183.133 23.3972 183.547 23.2696C183.547 23.2696 180.533 23.0167 178.706 23.8274C178.706 23.8274 180.314 21.9578 184.098 22.8063L186.225 21.0809C186.225 21.0809 182.259 20.5373 180.576 21.1376C180.576 21.1376 182.512 19.4831 186.795 20.6886L189.099 19.3106C189.099 19.3106 185.717 18.5826 183.701 18.8379C183.701 18.8379 185.828 17.6915 189.773 18.9348L191.427 18.195C191.427 18.195 188.948 17.7081 188.222 17.6324C187.497 17.5568 187.459 17.3535 187.459 17.3535C189.033 17.0975 190.648 17.2849 192.122 17.8948C192.122 17.8948 195.615 16.583 195.556 16.3632Z" fill="#ADA985"/>
<path d="M175.144 10.1636C175.144 10.1636 166.163 9.62 167.212 15.9213C167.212 15.9213 167.002 17.0346 168.011 17.5404C168.011 17.5404 168.025 17.0677 168.933 17.2331C169.255 17.2862 169.583 17.3021 169.909 17.2804C170.351 17.2489 170.77 17.0756 171.105 16.7864C171.105 16.7864 173.632 15.7417 174.615 11.6101C174.615 11.6101 175.343 10.7096 175.324 10.478L173.807 11.1256C173.807 11.1256 174.327 12.22 173.918 13.1299C173.918 13.1299 173.868 11.1658 173.577 11.2131C173.518 11.2131 172.788 11.5912 172.788 11.5912C172.788 11.5912 173.681 13.4987 173.008 14.8837C173.008 14.8837 173.263 12.5343 172.511 11.7283L171.443 12.3523C171.443 12.3523 172.485 14.3236 171.779 15.9308C171.779 15.9308 171.958 13.4656 171.219 12.5059L170.249 13.2599C170.249 13.2599 171.228 15.2004 170.632 16.5335C170.632 16.5335 170.554 13.6641 170.039 13.4467C170.039 13.4467 169.193 14.1936 169.063 14.5008C169.063 14.5008 169.734 15.919 169.318 16.6541C169.318 16.6541 169.063 14.7419 168.845 14.7348C168.845 14.7348 168.002 15.9993 167.914 16.8621C167.955 16.0592 168.205 15.281 168.64 14.6048C168.154 14.6968 167.705 14.9294 167.349 15.2737C167.349 15.2737 167.479 14.3779 168.848 14.2999C168.848 14.2999 169.545 13.3403 169.732 13.2812C169.732 13.2812 168.37 13.1678 167.546 13.5341C167.546 13.5341 168.271 12.6879 169.982 13.0614L170.928 12.2838C170.928 12.2838 169.136 12.0474 168.375 12.3074C168.375 12.3074 169.25 11.5605 171.185 12.1065L172.225 11.4825C172.225 11.4825 170.699 11.154 169.786 11.2722C169.786 11.2722 170.748 10.7545 172.53 11.3171L173.275 10.9814C173.275 10.9814 172.155 10.7616 171.828 10.7285C171.502 10.6954 171.481 10.6033 171.481 10.6033C172.19 10.4852 172.919 10.5671 173.584 10.8396C173.584 10.8396 175.17 10.2629 175.144 10.1636Z" fill="#ADA985"/>
<path opacity="0.1" d="M253.635 172.545C257.15 172.545 260 172.063 260 171.469C260 170.876 257.15 170.394 253.635 170.394C250.119 170.394 247.27 170.876 247.27 171.469C247.27 172.063 250.119 172.545 253.635 172.545Z" fill="#ADA985"/>
<path opacity="0.1" d="M11.0546 190.435C14.57 190.435 17.4198 189.953 17.4198 189.359C17.4198 188.765 14.57 188.284 11.0546 188.284C7.53923 188.284 4.68945 188.765 4.68945 189.359C4.68945 189.953 7.53923 190.435 11.0546 190.435Z" fill="#ADA985"/>
<path opacity="0.1" d="M48.0048 191.784C51.5202 191.784 54.37 191.303 54.37 190.709C54.37 190.115 51.5202 189.633 48.0048 189.633C44.4894 189.633 41.6396 190.115 41.6396 190.709C41.6396 191.303 44.4894 191.784 48.0048 191.784Z" fill="#ADA985"/>
<path d="M239.704 184.601C244.953 184.601 249.208 183.882 249.208 182.994C249.208 182.106 244.953 181.387 239.704 181.387C234.455 181.387 230.2 182.106 230.2 182.994C230.2 183.882 234.455 184.601 239.704 184.601Z" fill="#ADA985"/>
<path d="M243.633 180.368C244.066 180.014 244.383 179.537 244.54 179C244.656 178.459 244.424 177.806 243.907 177.608C243.325 177.386 242.704 177.79 242.233 178.196C241.763 178.603 241.222 179.066 240.605 178.981C240.922 178.694 241.159 178.329 241.294 177.923C241.428 177.516 241.454 177.082 241.371 176.662C241.344 176.488 241.27 176.325 241.158 176.19C240.834 175.845 240.25 175.991 239.863 176.263C238.634 177.128 238.291 178.797 238.284 180.3C238.161 179.759 238.265 179.194 238.263 178.645C238.26 178.097 238.107 177.464 237.639 177.173C237.348 177.018 237.022 176.941 236.693 176.951C236.14 176.929 235.525 176.984 235.147 177.388C234.675 177.891 234.8 178.733 235.209 179.279C235.618 179.825 236.237 180.179 236.807 180.56C237.265 180.832 237.656 181.205 237.951 181.65C237.985 181.712 238.013 181.778 238.036 181.846H241.498C242.273 181.452 242.991 180.955 243.633 180.368Z" fill="#ADA985"/>
<path d="M14.0252 160.549C14.0252 160.549 15.3228 162.246 13.4248 164.804C11.5269 167.361 9.96217 169.531 10.5885 171.129C10.5885 171.129 13.4508 166.368 15.7884 166.3C18.126 166.231 16.5873 163.412 14.0252 160.549Z" fill="#ADA985"/>
<path opacity="0.1" d="M14.0259 160.549C14.1386 160.713 14.2277 160.892 14.2906 161.081C16.5644 163.752 17.7745 166.246 15.5906 166.307C13.5532 166.366 11.0997 170.006 10.5254 170.925C10.5455 170.997 10.5691 171.067 10.5963 171.136C10.5963 171.136 13.4586 166.376 15.7962 166.307C18.1338 166.238 16.588 163.412 14.0259 160.549Z" fill="black"/>
<path d="M16.4388 162.712C16.4388 163.31 16.3703 163.795 16.2876 163.795C16.2049 163.795 16.1387 163.322 16.1387 162.712C16.1387 162.103 16.2214 162.396 16.3065 162.396C16.3916 162.396 16.4388 162.114 16.4388 162.712Z" fill="#FFD037"/>
<path d="M17.2563 163.426C16.7316 163.712 16.2754 163.884 16.2352 163.811C16.1951 163.738 16.5898 163.449 17.1145 163.163C17.6392 162.877 17.4312 163.085 17.4714 163.163C17.5116 163.241 17.7905 163.14 17.2563 163.426Z" fill="#FFD037"/>
<path d="M7.16689 160.549C7.16689 160.549 5.86928 162.246 7.76488 164.804C9.66048 167.361 11.2275 169.531 10.6012 171.129C10.6012 171.129 7.73652 166.368 5.40129 166.3C3.06606 166.231 4.60239 163.412 7.16689 160.549Z" fill="#ADA985"/>
<path opacity="0.1" d="M7.16641 160.549C7.05269 160.713 6.9635 160.892 6.90169 161.081C4.62791 163.752 3.41539 166.246 5.60171 166.307C7.63677 166.366 10.0925 170.006 10.6645 170.925C10.6452 170.997 10.6224 171.067 10.596 171.136C10.596 171.136 7.73131 166.376 5.39608 166.307C3.06085 166.238 4.60191 163.412 7.16641 160.549Z" fill="black"/>
<path d="M4.75293 162.712C4.75293 163.31 4.81911 163.795 4.90184 163.795C4.98456 163.795 5.05074 163.322 5.05074 162.712C5.05074 162.103 4.96802 162.396 4.88529 162.396C4.80257 162.396 4.75293 162.114 4.75293 162.712Z" fill="#FFD037"/>
<path d="M3.92339 163.426C4.44811 163.712 4.90665 163.884 4.94683 163.811C4.98701 163.738 4.59229 163.449 4.06757 163.163C3.54285 162.877 3.74849 163.085 3.71067 163.163C3.67285 163.241 3.39867 163.14 3.92339 163.426Z" fill="#FFD037"/>
<path d="M5.16699 170.914C5.16699 170.914 8.79747 170.802 9.89418 170.022C10.9909 169.243 15.4794 168.314 15.7512 169.55C16.023 170.786 21.2063 175.766 17.1079 175.799C13.0094 175.832 7.58495 175.159 6.49297 174.494C5.40099 173.83 5.16699 170.914 5.16699 170.914Z" fill="#A8A8A8"/>
<path opacity="0.2" d="M17.1764 175.376C13.0779 175.409 7.65349 174.736 6.56151 174.072C5.72953 173.566 5.39862 171.748 5.28754 170.909H5.16699C5.16699 170.909 5.40335 173.838 6.48824 174.502C7.57313 175.166 13.0047 175.84 17.1031 175.807C18.2849 175.807 18.6938 175.374 18.6726 174.752C18.5071 175.133 18.058 175.369 17.1764 175.376Z" fill="black"/>
<path d="M96.7444 97.9331C98.1318 97.8551 104.662 97.3635 108.811 94.9975C109.477 94.6056 110.229 94.384 111.002 94.3523C112.32 94.3145 113.838 94.8652 112.866 97.9473C111.292 102.989 102.152 108.661 96.4797 108.347C91.0245 108.045 84.553 105.846 80.2796 98.1175C79.8702 97.3739 79.6685 96.5338 79.6958 95.6853C79.7454 94.1254 80.3127 92.1707 83.2412 94.3499C87.1978 97.2926 94.7046 97.8504 96.2102 97.9331C96.3882 97.9427 96.5665 97.9427 96.7444 97.9331Z" fill="#9E9E9E"/>
<path d="M149.216 97.9331C150.604 97.8551 157.134 97.3635 161.282 94.9975C161.948 94.6056 162.701 94.384 163.473 94.3523C164.792 94.3145 166.31 94.8652 165.338 97.9473C163.764 102.989 154.624 108.661 148.951 108.347C143.496 108.045 137.025 105.846 132.751 98.1175C132.342 97.3739 132.14 96.5338 132.167 95.6853C132.217 94.1254 132.784 92.1707 135.713 94.3499C139.67 97.2926 147.176 97.8504 148.682 97.9331C148.86 97.9427 149.038 97.9427 149.216 97.9331Z" fill="#9E9E9E"/>
</g>
<defs>
<linearGradient id="paint0_linear_1434_31370" x1="210.866" y1="179.158" x2="210.866" y2="62.387" gradientUnits="userSpaceOnUse">
<stop stop-color="#808080" stop-opacity="0.25"/>
<stop offset="0.54" stop-color="#808080" stop-opacity="0.12"/>
<stop offset="1" stop-color="#808080" stop-opacity="0.1"/>
</linearGradient>
<clipPath id="clip0_1434_31370">
<rect width="260" height="191.784" fill="white"/>
</clipPath>
</defs>
</svg>
