<svg width="16" height="18" viewBox="0 0 16 18" fill="none" xmlns="http://www.w3.org/2000/svg">
<path fill-rule="evenodd" clip-rule="evenodd" d="M12.6026 5.36337V6.64115C14.0379 7.08916 15.0837 8.38848 15.0837 9.94037V14.0545C15.0837 15.9757 13.4909 17.5334 11.5272 17.5334H4.47432C2.50979 17.5334 0.916992 15.9757 0.916992 14.0545V9.94037C0.916992 8.38848 1.96362 7.08916 3.39806 6.64115V5.36337C3.40653 2.87902 5.46421 0.866699 7.98763 0.866699C10.5449 0.866699 12.6026 2.87902 12.6026 5.36337ZM8.00456 2.3159C9.72353 2.3159 11.1207 3.68229 11.1207 5.36337V6.46145H4.87993V5.34681C4.8884 3.67401 6.28559 2.3159 8.00456 2.3159ZM8.74126 12.9125C8.74126 13.3183 8.41101 13.6412 7.99609 13.6412C7.58964 13.6412 7.25939 13.3183 7.25939 12.9125V11.0741C7.25939 10.6766 7.58964 10.3536 7.99609 10.3536C8.41101 10.3536 8.74126 10.6766 8.74126 11.0741V12.9125Z" fill="#9E9E9E"/>
</svg>
