<svg width="16" height="21" viewBox="0 0 16 21" fill="none" xmlns="http://www.w3.org/2000/svg">
<path fill-rule="evenodd" clip-rule="evenodd" d="M7.84455 20.1623C4.15273 20.1623 1 19.5878 1 17.287C1 14.9862 4.13273 12.8623 7.84455 12.8623C11.5364 12.8623 14.6891 14.9657 14.6891 17.2664C14.6891 19.5663 11.5564 20.1623 7.84455 20.1623Z" stroke="#212121" stroke-width="1.5" stroke-linecap="round" stroke-linejoin="round"/>
<path fill-rule="evenodd" clip-rule="evenodd" d="M7.83749 9.67403C10.2602 9.67403 12.2239 7.71039 12.2239 5.28766C12.2239 2.86494 10.2602 0.900391 7.83749 0.900391C5.41477 0.900391 3.45022 2.86494 3.45022 5.28766C3.44204 7.70221 5.39204 9.66585 7.80658 9.67403C7.81749 9.67403 7.82749 9.67403 7.83749 9.67403Z" stroke="#212121" stroke-width="1.5" stroke-linecap="round" stroke-linejoin="round"/>
</svg>
