<svg width="18" height="16" viewBox="0 0 18 16" fill="none" xmlns="http://www.w3.org/2000/svg">
<path opacity="0.4" d="M9.81391 0.594597L11.6693 4.32316C11.806 4.5933 12.0669 4.78089 12.3678 4.82258L16.5354 5.42956C16.7787 5.46374 16.9996 5.59214 17.1488 5.78807C17.2964 5.9815 17.3597 6.22663 17.3239 6.46758C17.2947 6.66769 17.2005 6.85278 17.0563 6.99452L14.0365 9.92184C13.8156 10.1261 13.7156 10.4288 13.7689 10.7247L14.5124 14.8402C14.5916 15.3371 14.2624 15.8057 13.7689 15.8999C13.5655 15.9324 13.3572 15.8982 13.1738 15.8048L9.45633 13.868C9.18044 13.7288 8.85454 13.7288 8.57865 13.868L4.86118 15.8048C4.40442 16.0475 3.83846 15.8824 3.58424 15.4321C3.49005 15.2529 3.45671 15.0486 3.48755 14.8493L4.23105 10.7331C4.28439 10.4379 4.18354 10.1336 3.96349 9.92934L0.943673 7.00369C0.584429 6.65685 0.573593 6.08572 0.919501 5.72637C0.927003 5.71887 0.935338 5.71053 0.943673 5.70219C1.08704 5.55629 1.27541 5.46374 1.47879 5.43956L5.64635 4.83175C5.94641 4.78923 6.2073 4.6033 6.34483 4.3315L8.13355 0.594597C8.29275 0.274434 8.62282 0.0751662 8.98123 0.0835038H9.09292C9.40382 0.121023 9.67471 0.313621 9.81391 0.594597Z" fill="#ADA985"/>
<path d="M8.99367 13.7642C8.83225 13.7692 8.67499 13.8126 8.53355 13.8901L4.83426 15.8225C4.38162 16.0385 3.83996 15.8709 3.58619 15.4381C3.49217 15.2612 3.45805 15.0586 3.48967 14.8601L4.22853 10.7525C4.27845 10.454 4.17861 10.1504 3.96144 9.94021L0.940273 7.01532C0.58166 6.66419 0.575004 6.08789 0.926128 5.72843C0.931121 5.72342 0.935281 5.71925 0.940273 5.71508C1.08339 5.5733 1.2681 5.47989 1.46696 5.4507L5.63802 4.83686C5.94005 4.7985 6.20215 4.61001 6.33527 4.33645L8.14831 0.552517C8.32054 0.247267 8.65087 0.0654511 9.00033 0.0846335C8.99367 0.332337 8.99367 13.5957 8.99367 13.7642Z" fill="#ADA985"/>
</svg>
