<svg width="20" height="20" viewBox="0 0 20 20" fill="none" xmlns="http://www.w3.org/2000/svg">
<path d="M4.99967 16.6668C4.30523 16.6668 3.71495 16.4238 3.22884 15.9377C2.74273 15.4516 2.49967 14.8613 2.49967 14.1668H0.833008V5.00016C0.833008 4.54183 0.996341 4.14961 1.32301 3.8235C1.64912 3.49683 2.04134 3.3335 2.49967 3.3335H14.1663V6.66683H16.6663L19.1663 10.0002V14.1668H17.4997C17.4997 14.8613 17.2566 15.4516 16.7705 15.9377C16.2844 16.4238 15.6941 16.6668 14.9997 16.6668C14.3052 16.6668 13.715 16.4238 13.2288 15.9377C12.7427 15.4516 12.4997 14.8613 12.4997 14.1668H7.49967C7.49967 14.8613 7.25662 15.4516 6.77051 15.9377C6.2844 16.4238 5.69412 16.6668 4.99967 16.6668ZM4.99967 15.0002C5.23579 15.0002 5.43384 14.9202 5.59384 14.7602C5.75329 14.6007 5.83301 14.4029 5.83301 14.1668C5.83301 13.9307 5.75329 13.7329 5.59384 13.5735C5.43384 13.4135 5.23579 13.3335 4.99967 13.3335C4.76356 13.3335 4.56551 13.4135 4.40551 13.5735C4.24606 13.7329 4.16634 13.9307 4.16634 14.1668C4.16634 14.4029 4.24606 14.6007 4.40551 14.7602C4.56551 14.9202 4.76356 15.0002 4.99967 15.0002ZM14.9997 15.0002C15.2358 15.0002 15.4336 14.9202 15.593 14.7602C15.753 14.6007 15.833 14.4029 15.833 14.1668C15.833 13.9307 15.753 13.7329 15.593 13.5735C15.4336 13.4135 15.2358 13.3335 14.9997 13.3335C14.7636 13.3335 14.5658 13.4135 14.4063 13.5735C14.2463 13.7329 14.1663 13.9307 14.1663 14.1668C14.1663 14.4029 14.2463 14.6007 14.4063 14.7602C14.5658 14.9202 14.7636 15.0002 14.9997 15.0002ZM14.1663 10.8335H17.708L15.833 8.3335H14.1663V10.8335Z" fill="white"/>
</svg>
